<svg width="181" height="181" viewBox="0 0 181 181" fill="none" xmlns="http://www.w3.org/2000/svg">
<rect width="181" height="181" rx="10" fill="black"/>
<path d="M33.9813 91.0966C33.4448 90.0236 32.9083 88.5929 33.6237 82.87C34.339 77.1472 39.7042 75.0012 39.7042 75.0012C39.7042 75.0012 43.6386 73.9281 43.6386 76.0742C43.6386 78.2203 42.9233 79.2933 42.5656 79.651C42.2079 80.0086 40.196 80.724 39.7042 84.6584C39.2124 88.5929 40.0618 87.8775 39.7042 89.6659C39.3465 91.4543 38.2735 93.2427 36.8428 93.6003C35.412 93.958 34.5179 92.1696 33.9813 91.0966Z" fill="#EFEFEF"/>
<path d="M30.0469 89.6731C30.0469 116.846 67.9606 116.849 68.6757 89.6725C68.9643 78.706 62.9818 72.109 55.4419 69.9935C55.4419 69.9935 56.6543 69.5401 57.588 68.5628C58.5217 67.5856 59.0187 66.5571 59.0187 66.5571C67.4152 69.6258 74.0411 77.2263 74.0411 89.6724C74.0411 101.265 65.8766 108.654 58.3033 112.093C58.3033 112.093 53.2959 124.504 52.2228 125.791C51.1498 127.079 47.573 126.864 46.5 125.791C45.427 124.718 38.9888 112.093 38.9888 112.093C30.9344 108.576 24.6818 101.007 24.6818 89.6731C24.6818 75.2945 34.7455 67.0173 45.7847 65.3438C45.7847 65.3438 45.6086 66.6097 45.7847 67.49C45.9607 68.3703 46.5 69.6359 46.5 69.6359C37.8846 70.9383 30.0469 77.5448 30.0469 89.6731Z" fill="#EFEFEF"/>
<path d="M47.9306 72.854C47.9306 72.854 45.0692 68.5619 45.427 63.9121C45.7848 59.2623 49.3615 55.6855 49.3615 55.6855C49.3615 55.6855 52.5804 58.9046 51.865 64.6275C51.7359 65.6605 51.5252 66.5886 51.2666 67.416C50.0924 71.1726 47.9306 72.854 47.9306 72.854Z" fill="url(#paint0_linear_1114_1146)"/>
<path d="M51.2666 67.416C51.0032 68.2586 50.6902 68.9967 50.363 69.6349C49.3613 71.781 47.9306 72.854 47.9306 72.854C47.9306 72.854 54.7265 71.781 57.5879 68.9196C60.4493 66.0582 60.8069 61.4084 60.8069 61.4084C60.8069 61.4084 57.5878 61.0507 55.4418 62.4814C53.2957 63.9121 51.5692 66.3484 51.5692 66.3484C51.5692 66.3484 51.504 66.7124 51.2666 67.416Z" fill="url(#paint1_linear_1114_1146)"/>
<path d="M87.9904 102.891L90.8518 76.4228L97.29 75.3498L96.217 85.7224L105.517 83.934L106.59 73.9191L112.67 72.8461L110.166 98.9564L104.086 100.387L105.159 89.2992L95.8593 90.7299L94.7863 102.175L87.9904 102.891Z" fill="#FF6600"/>
<path fill-rule="evenodd" clip-rule="evenodd" d="M44.7116 108.971L55.7995 82.1456L61.88 81.0726L68.6759 106.468L61.88 107.541L61.5224 102.175L52.5805 103.606L50.4344 110.044L44.3539 110.402L44.7116 108.971ZM58.3033 89.2992L54.7265 98.5987L60.0917 97.8834L58.3033 89.2992Z" fill="#FF6600"/>
<path d="M117.32 73.2075C117.32 73.2075 117.32 71.7768 118.393 71.4191C119.466 71.0614 120.897 70.7037 120.897 70.7037L132.342 68.5577C132.342 68.5577 133.876 68.1493 134.488 68.5577C135.101 68.9661 134.846 69.9884 134.846 69.9884L134.488 73.2075C134.488 73.2075 134.488 73.9228 134.131 74.2805C133.773 74.6382 133.057 74.6382 133.057 74.6382L126.619 75.7112C126.619 75.7112 124.831 76.0164 124.473 76.4266C124.116 76.8367 124.116 77.1419 124.116 77.1419L123.973 78.9303C123.973 78.9303 123.901 79.863 124.116 80.0033C124.33 80.1436 124.831 80.0033 124.831 80.0033L130.911 78.9303C130.911 78.9303 131.718 78.6866 132.342 78.9303C132.966 79.174 133.057 79.6456 133.057 79.6456L132.7 83.2224C132.7 83.2224 132.7 84.2954 132.342 84.6531C131.984 85.0108 130.911 85.3685 130.911 85.3685L125.01 86.4415C125.01 86.4415 123.758 86.4415 123.4 86.7992C123.043 87.1568 123.089 87.3135 123.043 87.8722C122.984 88.5706 122.774 90.0182 122.774 90.0182C122.774 90.0182 122.536 90.823 122.774 90.9733C123.013 91.1235 124.33 90.7968 124.33 90.7968L130.196 89.6606C130.196 89.6606 131.984 89.3405 132.342 89.6606C132.7 89.9806 132.564 90.9733 132.564 90.9733L132.342 94.668C132.342 94.668 132.342 95.3834 131.984 95.7411C131.627 96.0987 130.554 96.4564 130.554 96.4564L117.32 98.2448C117.32 98.2448 115.889 98.7217 115.174 98.2448C114.458 97.7679 114.816 95.7411 114.816 95.7411L117.32 73.2075Z" fill="#FF6600"/>
<path d="M70.1065 97.8834C68.8174 98.5345 68.6758 104.679 69.0335 105.041C69.3911 105.402 72.5498 106.127 75.114 106.114C77.6781 106.1 80.4791 105.041 81.9098 104.325C83.3405 103.61 84.6139 102.183 85.8442 100.033C87.0745 97.8834 87.2749 93.9527 86.5596 92.1643C85.8442 90.3759 83.3405 88.5875 82.2675 88.5875C81.1945 88.5875 77.3613 87.5145 77.6177 85.7224C77.8741 83.9303 79.7637 83.934 79.7637 83.934C79.7637 83.934 84.7712 84.288 85.4866 83.934C86.2019 83.5801 87.9904 78.9303 86.5596 77.8573C85.1287 76.7842 79.7637 77.3463 78.6907 77.4996C77.6177 77.6529 74.3986 78.9303 72.2525 81.0726C70.1065 83.2149 68.6758 88.5875 70.8218 92.1643C71.6803 93.595 73.3256 94.3104 75.4716 95.0257C77.6177 95.7411 79.0484 95.7448 79.0484 97.1718C79.0484 98.5987 77.6177 99.3178 75.114 99.3178C72.6102 99.3178 71.3956 97.2322 70.1065 97.8834Z" fill="#FF6600"/>
<path fill-rule="evenodd" clip-rule="evenodd" d="M151.657 78.9292C151.657 78.9292 154.876 76.0705 155.949 72.491C157.022 68.9116 154.16 66.4069 152.372 66.0484L152.291 66.032C150.577 65.6884 150.35 65.6427 147.007 66.0535C143.612 66.4707 140.211 67.1259 140.211 67.1259C140.211 67.1259 137.707 67.4836 137.35 68.1944C136.992 68.9053 136.992 69.6251 136.992 69.6251L134.846 93.2373C134.846 93.2373 134.658 94.7516 135.204 95.0246C135.75 95.2976 136.634 95.0246 136.634 95.0246L140.926 93.9516C140.926 93.9516 141.999 93.5939 141.999 92.5209V91.8055L142.715 84.2944C142.715 84.2944 142.715 83.579 143.072 83.579H143.788H144.861C144.861 83.579 145.218 83.5801 145.576 83.9367C145.934 84.2933 146.292 85.3674 146.292 85.3674L148.177 91.579C148.177 91.579 148.438 92.5206 148.795 92.8786C149.153 93.2365 150.226 92.8786 150.226 92.8786L154.518 91.8055C154.518 91.8055 155.801 91.331 156.159 91.0901C156.517 90.8493 156.159 89.6606 156.159 89.6606L151.657 78.9292ZM148.08 73.2064C148.438 74.9985 147.007 76.4266 146.292 76.7831C145.576 77.1397 143.43 77.1419 143.43 77.1419L143.788 73.2075L145.218 72.491C145.218 72.491 147.722 71.4143 148.08 73.2064Z" fill="#FF6600"/>
<path d="M152.372 66.0484C154.16 66.4069 157.022 68.9116 155.949 72.491C154.876 76.0705 151.657 78.9292 151.657 78.9292L156.159 89.6606C156.159 89.6606 156.517 90.8493 156.159 91.0901C155.801 91.331 154.518 91.8055 154.518 91.8055L150.226 92.8786C150.226 92.8786 149.153 93.2365 148.795 92.8786C148.438 92.5206 148.177 91.579 148.177 91.579L146.292 85.3674C146.292 85.3674 145.934 84.2933 145.576 83.9367C145.218 83.5801 144.861 83.579 144.861 83.579H143.788M152.372 66.0484L152.291 66.032M152.372 66.0484C152.344 66.0429 152.317 66.0374 152.291 66.032M143.072 83.579C142.715 83.579 142.715 84.2944 142.715 84.2944L141.999 91.8055M143.072 83.579C143.43 83.579 143.788 83.579 143.788 83.579M143.072 83.579H143.788M141.999 92.5209C141.999 91.4479 141.999 91.8055 141.999 91.8055M141.999 92.5209C141.999 93.5939 140.926 93.9516 140.926 93.9516L136.634 95.0246C136.634 95.0246 135.75 95.2976 135.204 95.0246C134.658 94.7516 134.846 93.2373 134.846 93.2373L136.992 69.6251C136.992 69.6251 136.992 68.9053 137.35 68.1944C137.707 67.4836 140.211 67.1259 140.211 67.1259C140.211 67.1259 143.612 66.4707 147.007 66.0535C150.35 65.6427 150.577 65.6884 152.291 66.032M141.999 92.5209V91.8055M44.7116 108.971L55.7995 82.1456L61.88 81.0726L68.6759 106.468L61.88 107.541L61.5224 102.175L52.5805 103.606L50.4344 110.044L44.3539 110.402L44.7116 108.971ZM54.7265 98.5987L58.3033 89.2992L60.0917 97.8834L54.7265 98.5987ZM70.1065 97.8834C68.8174 98.5345 68.6758 104.679 69.0335 105.041C69.3911 105.402 72.5498 106.127 75.114 106.114C77.6781 106.1 80.4791 105.041 81.9098 104.325C83.3405 103.61 84.6139 102.183 85.8442 100.033C87.0745 97.8834 87.2749 93.9527 86.5596 92.1643C85.8442 90.3759 83.3405 88.5875 82.2675 88.5875C81.1945 88.5875 77.3613 87.5145 77.6177 85.7224C77.8741 83.9303 79.7637 83.934 79.7637 83.934C79.7637 83.934 84.7712 84.288 85.4866 83.934C86.2019 83.5801 87.9904 78.9303 86.5596 77.8573C85.1287 76.7842 79.7637 77.3463 78.6907 77.4996C77.6177 77.6529 74.3986 78.9303 72.2525 81.0726C70.1065 83.2149 68.6758 88.5875 70.8218 92.1643C71.6803 93.595 73.3256 94.3104 75.4716 95.0257C77.6177 95.7411 79.0484 95.7448 79.0484 97.1718C79.0484 98.5987 77.6177 99.3178 75.114 99.3178C72.6102 99.3178 71.3956 97.2322 70.1065 97.8834ZM87.9904 102.891L90.8518 76.4228L97.29 75.3498L96.217 85.7224L105.517 83.934L106.59 73.9191L112.67 72.8461L110.166 98.9564L104.086 100.387L105.159 89.2992L95.8593 90.7299L94.7863 102.175L87.9904 102.891ZM115.174 98.2448C114.458 97.7679 114.816 95.7411 114.816 95.7411L117.32 73.2075C117.32 73.2075 117.32 71.7768 118.393 71.4191C119.466 71.0614 120.897 70.7037 120.897 70.7037L132.342 68.5577C132.342 68.5577 133.876 68.1493 134.488 68.5577C135.101 68.9661 134.846 69.9884 134.846 69.9884L134.488 73.2075C134.488 73.2075 134.488 73.9228 134.131 74.2805C133.773 74.6382 133.057 74.6382 133.057 74.6382L126.619 75.7112C126.619 75.7112 124.831 76.0164 124.473 76.4266C124.116 76.8367 124.116 77.1419 124.116 77.1419L123.973 78.9303C123.973 78.9303 123.901 79.863 124.116 80.0033C124.33 80.1436 124.831 80.0033 124.831 80.0033L130.911 78.9303C130.911 78.9303 131.718 78.6866 132.342 78.9303C132.966 79.174 133.057 79.6456 133.057 79.6456L132.7 83.2224C132.7 83.2224 132.7 84.2954 132.342 84.6531C131.984 85.0108 130.911 85.3685 130.911 85.3685L125.01 86.4415C125.01 86.4415 123.758 86.4415 123.4 86.7992C123.043 87.1568 123.089 87.3135 123.043 87.8722C122.984 88.5706 122.774 90.0182 122.774 90.0182C122.774 90.0182 122.536 90.823 122.774 90.9733C123.013 91.1235 124.33 90.7968 124.33 90.7968L130.196 89.6606C130.196 89.6606 131.984 89.3405 132.342 89.6606C132.7 89.9806 132.564 90.9733 132.564 90.9733L132.342 94.668C132.342 94.668 132.342 95.3834 131.984 95.7411C131.627 96.0987 130.554 96.4564 130.554 96.4564L117.32 98.2448C117.32 98.2448 115.889 98.7217 115.174 98.2448ZM146.292 76.7831C147.007 76.4266 148.438 74.9985 148.08 73.2064C147.722 71.4143 145.218 72.491 145.218 72.491L143.788 73.2075L143.43 77.1419C143.43 77.1419 145.576 77.1397 146.292 76.7831Z" stroke="black"/>
<mask id="path-6-outside-1_1114_1146" maskUnits="userSpaceOnUse" x="49.3653" y="101.269" width="62.1548" height="22.3092" fill="black">
<rect fill="white" x="49.3653" y="101.269" width="62.1548" height="22.3092"/>
<path d="M54.8703 120.549C54.4117 120.629 53.9894 120.606 53.6033 120.479C53.2172 120.353 52.9542 120.155 52.8141 119.885L53.5413 119.259C53.6656 119.438 53.8353 119.568 54.0505 119.646C54.2731 119.723 54.5122 119.74 54.7678 119.695C55.1135 119.635 55.3803 119.499 55.5681 119.288C55.7622 119.069 55.8349 118.82 55.7864 118.541C55.7549 118.361 55.6603 118.219 55.5027 118.115C55.3451 118.01 55.0854 117.92 54.7235 117.844C54.1668 117.717 53.7472 117.554 53.4647 117.355C53.1808 117.149 53.0107 116.884 52.9543 116.561C52.8651 116.05 52.9859 115.61 53.3168 115.243C53.6477 114.875 54.1401 114.634 54.7941 114.52C55.1925 114.451 55.5677 114.471 55.9198 114.579C56.2719 114.688 56.5317 114.868 56.6992 115.117L56.0303 115.745C55.7556 115.414 55.3852 115.289 54.9191 115.37C54.626 115.421 54.4003 115.526 54.2422 115.686C54.0841 115.845 54.0228 116.026 54.0582 116.229C54.0844 116.379 54.1839 116.505 54.3565 116.607C54.5367 116.707 54.8404 116.805 55.2676 116.901C55.7665 117.007 56.1465 117.166 56.4078 117.376C56.6678 117.578 56.8253 117.837 56.8804 118.153C56.9486 118.544 56.9113 118.907 56.7683 119.242C56.6254 119.576 56.3879 119.858 56.056 120.086C55.7315 120.313 55.3363 120.467 54.8703 120.549Z"/>
<path d="M60.4357 113.536C61.1122 113.418 61.6688 113.522 62.1053 113.848C62.5494 114.174 62.8311 114.678 62.9505 115.362C62.9911 115.595 63.0125 115.851 63.0147 116.13L63.0066 116.549L58.9813 117.252L59.0109 117.421C59.0896 117.872 59.2627 118.198 59.5302 118.399C59.7963 118.593 60.1474 118.652 60.5834 118.576C61.2373 118.462 61.7709 118.101 62.184 117.495L62.8069 118.002C62.5843 118.412 62.2795 118.752 61.8927 119.021C61.5134 119.289 61.0869 119.464 60.6134 119.546C59.8993 119.671 59.297 119.571 58.8065 119.246C58.3223 118.912 58.0191 118.396 57.8971 117.697C57.7738 116.99 57.7964 116.343 57.9651 115.756C58.1399 115.16 58.4379 114.671 58.8589 114.287C59.2862 113.895 59.8118 113.645 60.4357 113.536ZM61.9623 115.825C61.9511 115.672 61.9403 115.566 61.9298 115.506C61.8603 115.107 61.6975 114.818 61.4415 114.638C61.1929 114.457 60.8695 114.401 60.4711 114.471C60.0577 114.543 59.7156 114.757 59.4448 115.114C59.1741 115.472 59.0144 115.91 58.9656 116.43L61.9648 115.906L61.9623 115.825Z"/>
<path d="M65.4546 118.701C65.0938 118.764 64.8043 118.726 64.5862 118.586C64.3668 118.438 64.2276 118.195 64.1686 117.857C64.1476 117.737 64.1365 117.607 64.1355 117.468L64.1551 110.191L65.2714 109.996L65.2571 117.237C65.2631 117.36 65.2693 117.44 65.2759 117.478C65.3008 117.621 65.3568 117.719 65.4437 117.774C65.5294 117.821 65.6511 117.831 65.809 117.803C65.9669 117.775 66.165 117.691 66.4036 117.548L66.5721 118.181C66.4388 118.305 66.2715 118.412 66.0702 118.501C65.8778 118.597 65.6726 118.663 65.4546 118.701Z"/>
<path d="M67.7451 113.189L66.8206 113.351L66.8181 112.538L67.754 112.375L67.7447 111.656C67.7467 111.09 67.8936 110.623 68.1856 110.254C68.4776 109.886 68.9055 109.652 69.4692 109.554C69.7248 109.509 69.9763 109.508 70.2238 109.55C70.4699 109.585 70.6567 109.657 70.7843 109.766L70.3837 110.533C70.2954 110.471 70.1872 110.428 70.0591 110.404C69.9384 110.378 69.8142 110.377 69.6864 110.399C69.4384 110.442 69.2392 110.566 69.089 110.771C68.945 110.966 68.8723 111.215 68.8708 111.517L68.8702 112.18L70.4713 111.9L70.4737 112.713L68.8614 112.995L68.8619 117.991L67.7457 118.185L67.7451 113.189Z"/>
<path d="M70.9498 114.129L74.1068 113.578L74.1093 114.391L70.9409 114.944L70.9498 114.129Z"/>
<path d="M76.8481 116.713C76.3896 116.793 75.9672 116.77 75.5812 116.644C75.1951 116.517 74.932 116.319 74.7919 116.049L75.5191 115.423C75.6435 115.603 75.8132 115.732 76.0283 115.81C76.2509 115.888 76.49 115.904 76.7456 115.859C77.0914 115.799 77.3582 115.663 77.546 115.452C77.74 115.233 77.8127 114.984 77.7642 114.706C77.7327 114.525 77.6382 114.383 77.4805 114.279C77.3229 114.175 77.0632 114.084 76.7013 114.008C76.1446 113.881 75.725 113.718 75.4425 113.519C75.1587 113.313 74.9885 113.048 74.9321 112.725C74.8429 112.214 74.9638 111.775 75.2946 111.407C75.6255 111.04 76.1179 110.799 76.7719 110.685C77.1703 110.615 77.5455 110.635 77.8976 110.744C78.2497 110.853 78.5095 111.032 78.677 111.282L78.0081 111.909C77.7334 111.578 77.363 111.453 76.8969 111.534C76.6038 111.585 76.3782 111.69 76.2201 111.85C76.062 112.009 76.0006 112.19 76.036 112.393C76.0623 112.543 76.1617 112.669 76.3344 112.771C76.5145 112.871 76.8182 112.969 77.2455 113.065C77.7443 113.172 78.1244 113.33 78.3856 113.54C78.6456 113.742 78.8031 114.001 78.8582 114.317C78.9265 114.708 78.8891 115.071 78.7461 115.406C78.6032 115.74 78.3657 116.022 78.0338 116.25C77.7094 116.477 77.3141 116.632 76.8481 116.713Z"/>
<path d="M82.4135 109.7C83.0901 109.582 83.6466 109.686 84.0831 110.013C84.5272 110.338 84.8089 110.843 84.9283 111.527C84.969 111.76 84.9904 112.015 84.9925 112.294L84.9844 112.714L80.9592 113.416L80.9887 113.585C81.0674 114.036 81.2405 114.362 81.508 114.563C81.7742 114.757 82.1252 114.816 82.5612 114.74C83.2152 114.626 83.7487 114.265 84.1618 113.659L84.7848 114.166C84.5621 114.576 84.2573 114.916 83.8705 115.185C83.4912 115.453 83.0648 115.628 82.5912 115.711C81.8771 115.835 81.2748 115.735 80.7844 115.41C80.3001 115.076 79.9969 114.56 79.8749 113.861C79.7516 113.154 79.7743 112.507 79.9429 111.92C80.1177 111.324 80.4157 110.835 80.8368 110.451C81.2641 110.059 81.7897 109.809 82.4135 109.7ZM83.9402 111.99C83.929 111.837 83.9181 111.73 83.9076 111.67C83.8381 111.271 83.6753 110.982 83.4193 110.802C83.1708 110.621 82.8473 110.565 82.4489 110.635C82.0355 110.707 81.6934 110.922 81.4227 111.279C81.1519 111.636 80.9922 112.074 80.9435 112.594L83.9427 112.07L83.9402 111.99Z"/>
<path d="M86.0938 110.591C86.0924 109.918 86.0801 109.447 86.0567 109.18L87.1053 108.997C87.1463 109.277 87.1627 109.615 87.1544 110.011L87.1516 110.128L87.1854 110.122C87.3263 109.687 87.5557 109.337 87.8736 109.072C88.1977 108.799 88.5927 108.621 89.0588 108.54C89.179 108.519 89.2863 108.512 89.3804 108.519L89.38 109.448C89.3247 109.442 89.2107 109.455 89.0378 109.485C88.707 109.543 88.4009 109.697 88.1193 109.947C87.8364 110.19 87.611 110.497 87.4432 110.867C87.2817 111.228 87.2012 111.61 87.2017 112.013L87.1985 114.79L86.0823 114.985L86.0938 110.591Z"/>
<path d="M94.9665 107.625L92.7934 113.814L91.8012 113.987L89.6446 108.554L90.7496 108.361L92.2455 112.538L93.76 107.836L94.9665 107.625Z"/>
<path d="M96.5301 106.458C96.3422 106.49 96.1752 106.465 96.029 106.382C95.8904 106.298 95.8066 106.173 95.7778 106.008C95.7331 105.752 95.7798 105.531 95.9176 105.345C96.0554 105.158 96.2559 105.042 96.5189 104.996C96.7144 104.962 96.8814 104.987 97.02 105.071C97.1662 105.154 97.2537 105.278 97.2826 105.443C97.3272 105.699 97.2768 105.921 97.1315 106.109C96.9937 106.295 96.7932 106.412 96.5301 106.458ZM95.9713 107.45L97.0875 107.255L97.0793 113.066L95.963 113.261L95.9713 107.45Z"/>
<path d="M101.078 112.484C100.356 112.61 99.7541 112.51 99.2712 112.184C98.7869 111.85 98.4844 111.337 98.3637 110.646C98.2391 109.932 98.2649 109.28 98.441 108.692C98.6158 108.096 98.9176 107.606 99.3462 107.221C99.781 106.827 100.314 106.576 100.945 106.465C101.442 106.379 101.887 106.402 102.282 106.534C102.676 106.659 102.978 106.881 103.188 107.201L102.503 107.936C102.354 107.699 102.15 107.529 101.892 107.427C101.634 107.325 101.355 107.3 101.054 107.353C100.671 107.42 100.341 107.597 100.066 107.885C99.7975 108.165 99.6083 108.523 99.4987 108.96C99.3953 109.389 99.387 109.851 99.4735 110.347C99.5549 110.813 99.7306 111.155 100.001 111.371C100.278 111.586 100.628 111.656 101.049 111.583C101.349 111.53 101.626 111.408 101.879 111.217C102.133 111.026 102.338 110.785 102.497 110.494L103.176 110.991C102.732 111.82 102.033 112.317 101.078 112.484Z"/>
<path d="M106.318 105.528C106.995 105.41 107.551 105.514 107.988 105.84C108.432 106.166 108.714 106.67 108.833 107.354C108.874 107.587 108.895 107.843 108.897 108.122L108.889 108.541L104.864 109.244L104.893 109.413C104.972 109.864 105.145 110.19 105.413 110.391C105.679 110.585 106.03 110.644 106.466 110.568C107.12 110.454 107.653 110.093 108.067 109.487L108.69 109.994C108.467 110.404 108.162 110.744 107.775 111.013C107.396 111.281 106.97 111.456 106.496 111.538C105.782 111.663 105.18 111.563 104.689 111.238C104.205 110.904 103.902 110.388 103.78 109.689C103.656 108.982 103.679 108.335 103.848 107.748C104.022 107.152 104.32 106.663 104.742 106.279C105.169 105.887 105.694 105.637 106.318 105.528ZM107.845 107.817C107.834 107.664 107.823 107.558 107.812 107.498C107.743 107.099 107.58 106.81 107.324 106.63C107.076 106.449 106.752 106.393 106.354 106.463C105.94 106.535 105.598 106.749 105.327 107.107C105.057 107.464 104.897 107.902 104.848 108.422L107.847 107.898L107.845 107.817Z"/>
</mask>
<path d="M54.8703 120.549C54.4117 120.629 53.9894 120.606 53.6033 120.479C53.2172 120.353 52.9542 120.155 52.8141 119.885L53.5413 119.259C53.6656 119.438 53.8353 119.568 54.0505 119.646C54.2731 119.723 54.5122 119.74 54.7678 119.695C55.1135 119.635 55.3803 119.499 55.5681 119.288C55.7622 119.069 55.8349 118.82 55.7864 118.541C55.7549 118.361 55.6603 118.219 55.5027 118.115C55.3451 118.01 55.0854 117.92 54.7235 117.844C54.1668 117.717 53.7472 117.554 53.4647 117.355C53.1808 117.149 53.0107 116.884 52.9543 116.561C52.8651 116.05 52.9859 115.61 53.3168 115.243C53.6477 114.875 54.1401 114.634 54.7941 114.52C55.1925 114.451 55.5677 114.471 55.9198 114.579C56.2719 114.688 56.5317 114.868 56.6992 115.117L56.0303 115.745C55.7556 115.414 55.3852 115.289 54.9191 115.37C54.626 115.421 54.4003 115.526 54.2422 115.686C54.0841 115.845 54.0228 116.026 54.0582 116.229C54.0844 116.379 54.1839 116.505 54.3565 116.607C54.5367 116.707 54.8404 116.805 55.2676 116.901C55.7665 117.007 56.1465 117.166 56.4078 117.376C56.6678 117.578 56.8253 117.837 56.8804 118.153C56.9486 118.544 56.9113 118.907 56.7683 119.242C56.6254 119.576 56.3879 119.858 56.056 120.086C55.7315 120.313 55.3363 120.467 54.8703 120.549Z" fill="black"/>
<path d="M60.4357 113.536C61.1122 113.418 61.6688 113.522 62.1053 113.848C62.5494 114.174 62.8311 114.678 62.9505 115.362C62.9911 115.595 63.0125 115.851 63.0147 116.13L63.0066 116.549L58.9813 117.252L59.0109 117.421C59.0896 117.872 59.2627 118.198 59.5302 118.399C59.7963 118.593 60.1474 118.652 60.5834 118.576C61.2373 118.462 61.7709 118.101 62.184 117.495L62.8069 118.002C62.5843 118.412 62.2795 118.752 61.8927 119.021C61.5134 119.289 61.0869 119.464 60.6134 119.546C59.8993 119.671 59.297 119.571 58.8065 119.246C58.3223 118.912 58.0191 118.396 57.8971 117.697C57.7738 116.99 57.7964 116.343 57.9651 115.756C58.1399 115.16 58.4379 114.671 58.8589 114.287C59.2862 113.895 59.8118 113.645 60.4357 113.536ZM61.9623 115.825C61.9511 115.672 61.9403 115.566 61.9298 115.506C61.8603 115.107 61.6975 114.818 61.4415 114.638C61.1929 114.457 60.8695 114.401 60.4711 114.471C60.0577 114.543 59.7156 114.757 59.4448 115.114C59.1741 115.472 59.0144 115.91 58.9656 116.43L61.9648 115.906L61.9623 115.825Z" fill="black"/>
<path d="M65.4546 118.701C65.0938 118.764 64.8043 118.726 64.5862 118.586C64.3668 118.438 64.2276 118.195 64.1686 117.857C64.1476 117.737 64.1365 117.607 64.1355 117.468L64.1551 110.191L65.2714 109.996L65.2571 117.237C65.2631 117.36 65.2693 117.44 65.2759 117.478C65.3008 117.621 65.3568 117.719 65.4437 117.774C65.5294 117.821 65.6511 117.831 65.809 117.803C65.9669 117.775 66.165 117.691 66.4036 117.548L66.5721 118.181C66.4388 118.305 66.2715 118.412 66.0702 118.501C65.8778 118.597 65.6726 118.663 65.4546 118.701Z" fill="black"/>
<path d="M67.7451 113.189L66.8206 113.351L66.8181 112.538L67.754 112.375L67.7447 111.656C67.7467 111.09 67.8936 110.623 68.1856 110.254C68.4776 109.886 68.9055 109.652 69.4692 109.554C69.7248 109.509 69.9763 109.508 70.2238 109.55C70.4699 109.585 70.6567 109.657 70.7843 109.766L70.3837 110.533C70.2954 110.471 70.1872 110.428 70.0591 110.404C69.9384 110.378 69.8142 110.377 69.6864 110.399C69.4384 110.442 69.2392 110.566 69.089 110.771C68.945 110.966 68.8723 111.215 68.8708 111.517L68.8702 112.18L70.4713 111.9L70.4737 112.713L68.8614 112.995L68.8619 117.991L67.7457 118.185L67.7451 113.189Z" fill="black"/>
<path d="M70.9498 114.129L74.1068 113.578L74.1093 114.391L70.9409 114.944L70.9498 114.129Z" fill="black"/>
<path d="M76.8481 116.713C76.3896 116.793 75.9672 116.77 75.5812 116.644C75.1951 116.517 74.932 116.319 74.7919 116.049L75.5191 115.423C75.6435 115.603 75.8132 115.732 76.0283 115.81C76.2509 115.888 76.49 115.904 76.7456 115.859C77.0914 115.799 77.3582 115.663 77.546 115.452C77.74 115.233 77.8127 114.984 77.7642 114.706C77.7327 114.525 77.6382 114.383 77.4805 114.279C77.3229 114.175 77.0632 114.084 76.7013 114.008C76.1446 113.881 75.725 113.718 75.4425 113.519C75.1587 113.313 74.9885 113.048 74.9321 112.725C74.8429 112.214 74.9638 111.775 75.2946 111.407C75.6255 111.04 76.1179 110.799 76.7719 110.685C77.1703 110.615 77.5455 110.635 77.8976 110.744C78.2497 110.853 78.5095 111.032 78.677 111.282L78.0081 111.909C77.7334 111.578 77.363 111.453 76.8969 111.534C76.6038 111.585 76.3782 111.69 76.2201 111.85C76.062 112.009 76.0006 112.19 76.036 112.393C76.0623 112.543 76.1617 112.669 76.3344 112.771C76.5145 112.871 76.8182 112.969 77.2455 113.065C77.7443 113.172 78.1244 113.33 78.3856 113.54C78.6456 113.742 78.8031 114.001 78.8582 114.317C78.9265 114.708 78.8891 115.071 78.7461 115.406C78.6032 115.74 78.3657 116.022 78.0338 116.25C77.7094 116.477 77.3141 116.632 76.8481 116.713Z" fill="black"/>
<path d="M82.4135 109.7C83.0901 109.582 83.6466 109.686 84.0831 110.013C84.5272 110.338 84.8089 110.843 84.9283 111.527C84.969 111.76 84.9904 112.015 84.9925 112.294L84.9844 112.714L80.9592 113.416L80.9887 113.585C81.0674 114.036 81.2405 114.362 81.508 114.563C81.7742 114.757 82.1252 114.816 82.5612 114.74C83.2152 114.626 83.7487 114.265 84.1618 113.659L84.7848 114.166C84.5621 114.576 84.2573 114.916 83.8705 115.185C83.4912 115.453 83.0648 115.628 82.5912 115.711C81.8771 115.835 81.2748 115.735 80.7844 115.41C80.3001 115.076 79.9969 114.56 79.8749 113.861C79.7516 113.154 79.7743 112.507 79.9429 111.92C80.1177 111.324 80.4157 110.835 80.8368 110.451C81.2641 110.059 81.7897 109.809 82.4135 109.7ZM83.9402 111.99C83.929 111.837 83.9181 111.73 83.9076 111.67C83.8381 111.271 83.6753 110.982 83.4193 110.802C83.1708 110.621 82.8473 110.565 82.4489 110.635C82.0355 110.707 81.6934 110.922 81.4227 111.279C81.1519 111.636 80.9922 112.074 80.9435 112.594L83.9427 112.07L83.9402 111.99Z" fill="black"/>
<path d="M86.0938 110.591C86.0924 109.918 86.0801 109.447 86.0567 109.18L87.1053 108.997C87.1463 109.277 87.1627 109.615 87.1544 110.011L87.1516 110.128L87.1854 110.122C87.3263 109.687 87.5557 109.337 87.8736 109.072C88.1977 108.799 88.5927 108.621 89.0588 108.54C89.179 108.519 89.2863 108.512 89.3804 108.519L89.38 109.448C89.3247 109.442 89.2107 109.455 89.0378 109.485C88.707 109.543 88.4009 109.697 88.1193 109.947C87.8364 110.19 87.611 110.497 87.4432 110.867C87.2817 111.228 87.2012 111.61 87.2017 112.013L87.1985 114.79L86.0823 114.985L86.0938 110.591Z" fill="black"/>
<path d="M94.9665 107.625L92.7934 113.814L91.8012 113.987L89.6446 108.554L90.7496 108.361L92.2455 112.538L93.76 107.836L94.9665 107.625Z" fill="black"/>
<path d="M96.5301 106.458C96.3422 106.49 96.1752 106.465 96.029 106.382C95.8904 106.298 95.8066 106.173 95.7778 106.008C95.7331 105.752 95.7798 105.531 95.9176 105.345C96.0554 105.158 96.2559 105.042 96.5189 104.996C96.7144 104.962 96.8814 104.987 97.02 105.071C97.1662 105.154 97.2537 105.278 97.2826 105.443C97.3272 105.699 97.2768 105.921 97.1315 106.109C96.9937 106.295 96.7932 106.412 96.5301 106.458ZM95.9713 107.45L97.0875 107.255L97.0793 113.066L95.963 113.261L95.9713 107.45Z" fill="black"/>
<path d="M101.078 112.484C100.356 112.61 99.7541 112.51 99.2712 112.184C98.7869 111.85 98.4844 111.337 98.3637 110.646C98.2391 109.932 98.2649 109.28 98.441 108.692C98.6158 108.096 98.9176 107.606 99.3462 107.221C99.781 106.827 100.314 106.576 100.945 106.465C101.442 106.379 101.887 106.402 102.282 106.534C102.676 106.659 102.978 106.881 103.188 107.201L102.503 107.936C102.354 107.699 102.15 107.529 101.892 107.427C101.634 107.325 101.355 107.3 101.054 107.353C100.671 107.42 100.341 107.597 100.066 107.885C99.7975 108.165 99.6083 108.523 99.4987 108.96C99.3953 109.389 99.387 109.851 99.4735 110.347C99.5549 110.813 99.7306 111.155 100.001 111.371C100.278 111.586 100.628 111.656 101.049 111.583C101.349 111.53 101.626 111.408 101.879 111.217C102.133 111.026 102.338 110.785 102.497 110.494L103.176 110.991C102.732 111.82 102.033 112.317 101.078 112.484Z" fill="black"/>
<path d="M106.318 105.528C106.995 105.41 107.551 105.514 107.988 105.84C108.432 106.166 108.714 106.67 108.833 107.354C108.874 107.587 108.895 107.843 108.897 108.122L108.889 108.541L104.864 109.244L104.893 109.413C104.972 109.864 105.145 110.19 105.413 110.391C105.679 110.585 106.03 110.644 106.466 110.568C107.12 110.454 107.653 110.093 108.067 109.487L108.69 109.994C108.467 110.404 108.162 110.744 107.775 111.013C107.396 111.281 106.97 111.456 106.496 111.538C105.782 111.663 105.18 111.563 104.689 111.238C104.205 110.904 103.902 110.388 103.78 109.689C103.656 108.982 103.679 108.335 103.848 107.748C104.022 107.152 104.32 106.663 104.742 106.279C105.169 105.887 105.694 105.637 106.318 105.528ZM107.845 107.817C107.834 107.664 107.823 107.558 107.812 107.498C107.743 107.099 107.58 106.81 107.324 106.63C107.076 106.449 106.752 106.393 106.354 106.463C105.94 106.535 105.598 106.749 105.327 107.107C105.057 107.464 104.897 107.902 104.848 108.422L107.847 107.898L107.845 107.817Z" fill="black"/>
<path d="M54.8703 120.549C54.4117 120.629 53.9894 120.606 53.6033 120.479C53.2172 120.353 52.9542 120.155 52.8141 119.885L53.5413 119.259C53.6656 119.438 53.8353 119.568 54.0505 119.646C54.2731 119.723 54.5122 119.74 54.7678 119.695C55.1135 119.635 55.3803 119.499 55.5681 119.288C55.7622 119.069 55.8349 118.82 55.7864 118.541C55.7549 118.361 55.6603 118.219 55.5027 118.115C55.3451 118.01 55.0854 117.92 54.7235 117.844C54.1668 117.717 53.7472 117.554 53.4647 117.355C53.1808 117.149 53.0107 116.884 52.9543 116.561C52.8651 116.05 52.9859 115.61 53.3168 115.243C53.6477 114.875 54.1401 114.634 54.7941 114.52C55.1925 114.451 55.5677 114.471 55.9198 114.579C56.2719 114.688 56.5317 114.868 56.6992 115.117L56.0303 115.745C55.7556 115.414 55.3852 115.289 54.9191 115.37C54.626 115.421 54.4003 115.526 54.2422 115.686C54.0841 115.845 54.0228 116.026 54.0582 116.229C54.0844 116.379 54.1839 116.505 54.3565 116.607C54.5367 116.707 54.8404 116.805 55.2676 116.901C55.7665 117.007 56.1465 117.166 56.4078 117.376C56.6678 117.578 56.8253 117.837 56.8804 118.153C56.9486 118.544 56.9113 118.907 56.7683 119.242C56.6254 119.576 56.3879 119.858 56.056 120.086C55.7315 120.313 55.3363 120.467 54.8703 120.549Z" stroke="#F5F5F5" stroke-width="2" mask="url(#path-6-outside-1_1114_1146)"/>
<path d="M60.4357 113.536C61.1122 113.418 61.6688 113.522 62.1053 113.848C62.5494 114.174 62.8311 114.678 62.9505 115.362C62.9911 115.595 63.0125 115.851 63.0147 116.13L63.0066 116.549L58.9813 117.252L59.0109 117.421C59.0896 117.872 59.2627 118.198 59.5302 118.399C59.7963 118.593 60.1474 118.652 60.5834 118.576C61.2373 118.462 61.7709 118.101 62.184 117.495L62.8069 118.002C62.5843 118.412 62.2795 118.752 61.8927 119.021C61.5134 119.289 61.0869 119.464 60.6134 119.546C59.8993 119.671 59.297 119.571 58.8065 119.246C58.3223 118.912 58.0191 118.396 57.8971 117.697C57.7738 116.99 57.7964 116.343 57.9651 115.756C58.1399 115.16 58.4379 114.671 58.8589 114.287C59.2862 113.895 59.8118 113.645 60.4357 113.536ZM61.9623 115.825C61.9511 115.672 61.9403 115.566 61.9298 115.506C61.8603 115.107 61.6975 114.818 61.4415 114.638C61.1929 114.457 60.8695 114.401 60.4711 114.471C60.0577 114.543 59.7156 114.757 59.4448 115.114C59.1741 115.472 59.0144 115.91 58.9656 116.43L61.9648 115.906L61.9623 115.825Z" stroke="#F5F5F5" stroke-width="2" mask="url(#path-6-outside-1_1114_1146)"/>
<path d="M65.4546 118.701C65.0938 118.764 64.8043 118.726 64.5862 118.586C64.3668 118.438 64.2276 118.195 64.1686 117.857C64.1476 117.737 64.1365 117.607 64.1355 117.468L64.1551 110.191L65.2714 109.996L65.2571 117.237C65.2631 117.36 65.2693 117.44 65.2759 117.478C65.3008 117.621 65.3568 117.719 65.4437 117.774C65.5294 117.821 65.6511 117.831 65.809 117.803C65.9669 117.775 66.165 117.691 66.4036 117.548L66.5721 118.181C66.4388 118.305 66.2715 118.412 66.0702 118.501C65.8778 118.597 65.6726 118.663 65.4546 118.701Z" stroke="#F5F5F5" stroke-width="2" mask="url(#path-6-outside-1_1114_1146)"/>
<path d="M67.7451 113.189L66.8206 113.351L66.8181 112.538L67.754 112.375L67.7447 111.656C67.7467 111.09 67.8936 110.623 68.1856 110.254C68.4776 109.886 68.9055 109.652 69.4692 109.554C69.7248 109.509 69.9763 109.508 70.2238 109.55C70.4699 109.585 70.6567 109.657 70.7843 109.766L70.3837 110.533C70.2954 110.471 70.1872 110.428 70.0591 110.404C69.9384 110.378 69.8142 110.377 69.6864 110.399C69.4384 110.442 69.2392 110.566 69.089 110.771C68.945 110.966 68.8723 111.215 68.8708 111.517L68.8702 112.18L70.4713 111.9L70.4737 112.713L68.8614 112.995L68.8619 117.991L67.7457 118.185L67.7451 113.189Z" stroke="#F5F5F5" stroke-width="2" mask="url(#path-6-outside-1_1114_1146)"/>
<path d="M70.9498 114.129L74.1068 113.578L74.1093 114.391L70.9409 114.944L70.9498 114.129Z" stroke="#F5F5F5" stroke-width="2" mask="url(#path-6-outside-1_1114_1146)"/>
<path d="M76.8481 116.713C76.3896 116.793 75.9672 116.77 75.5812 116.644C75.1951 116.517 74.932 116.319 74.7919 116.049L75.5191 115.423C75.6435 115.603 75.8132 115.732 76.0283 115.81C76.2509 115.888 76.49 115.904 76.7456 115.859C77.0914 115.799 77.3582 115.663 77.546 115.452C77.74 115.233 77.8127 114.984 77.7642 114.706C77.7327 114.525 77.6382 114.383 77.4805 114.279C77.3229 114.175 77.0632 114.084 76.7013 114.008C76.1446 113.881 75.725 113.718 75.4425 113.519C75.1587 113.313 74.9885 113.048 74.9321 112.725C74.8429 112.214 74.9638 111.775 75.2946 111.407C75.6255 111.04 76.1179 110.799 76.7719 110.685C77.1703 110.615 77.5455 110.635 77.8976 110.744C78.2497 110.853 78.5095 111.032 78.677 111.282L78.0081 111.909C77.7334 111.578 77.363 111.453 76.8969 111.534C76.6038 111.585 76.3782 111.69 76.2201 111.85C76.062 112.009 76.0006 112.19 76.036 112.393C76.0623 112.543 76.1617 112.669 76.3344 112.771C76.5145 112.871 76.8182 112.969 77.2455 113.065C77.7443 113.172 78.1244 113.33 78.3856 113.54C78.6456 113.742 78.8031 114.001 78.8582 114.317C78.9265 114.708 78.8891 115.071 78.7461 115.406C78.6032 115.74 78.3657 116.022 78.0338 116.25C77.7094 116.477 77.3141 116.632 76.8481 116.713Z" stroke="#F5F5F5" stroke-width="2" mask="url(#path-6-outside-1_1114_1146)"/>
<path d="M82.4135 109.7C83.0901 109.582 83.6466 109.686 84.0831 110.013C84.5272 110.338 84.8089 110.843 84.9283 111.527C84.969 111.76 84.9904 112.015 84.9925 112.294L84.9844 112.714L80.9592 113.416L80.9887 113.585C81.0674 114.036 81.2405 114.362 81.508 114.563C81.7742 114.757 82.1252 114.816 82.5612 114.74C83.2152 114.626 83.7487 114.265 84.1618 113.659L84.7848 114.166C84.5621 114.576 84.2573 114.916 83.8705 115.185C83.4912 115.453 83.0648 115.628 82.5912 115.711C81.8771 115.835 81.2748 115.735 80.7844 115.41C80.3001 115.076 79.9969 114.56 79.8749 113.861C79.7516 113.154 79.7743 112.507 79.9429 111.92C80.1177 111.324 80.4157 110.835 80.8368 110.451C81.2641 110.059 81.7897 109.809 82.4135 109.7ZM83.9402 111.99C83.929 111.837 83.9181 111.73 83.9076 111.67C83.8381 111.271 83.6753 110.982 83.4193 110.802C83.1708 110.621 82.8473 110.565 82.4489 110.635C82.0355 110.707 81.6934 110.922 81.4227 111.279C81.1519 111.636 80.9922 112.074 80.9435 112.594L83.9427 112.07L83.9402 111.99Z" stroke="#F5F5F5" stroke-width="2" mask="url(#path-6-outside-1_1114_1146)"/>
<path d="M86.0938 110.591C86.0924 109.918 86.0801 109.447 86.0567 109.18L87.1053 108.997C87.1463 109.277 87.1627 109.615 87.1544 110.011L87.1516 110.128L87.1854 110.122C87.3263 109.687 87.5557 109.337 87.8736 109.072C88.1977 108.799 88.5927 108.621 89.0588 108.54C89.179 108.519 89.2863 108.512 89.3804 108.519L89.38 109.448C89.3247 109.442 89.2107 109.455 89.0378 109.485C88.707 109.543 88.4009 109.697 88.1193 109.947C87.8364 110.19 87.611 110.497 87.4432 110.867C87.2817 111.228 87.2012 111.61 87.2017 112.013L87.1985 114.79L86.0823 114.985L86.0938 110.591Z" stroke="#F5F5F5" stroke-width="2" mask="url(#path-6-outside-1_1114_1146)"/>
<path d="M94.9665 107.625L92.7934 113.814L91.8012 113.987L89.6446 108.554L90.7496 108.361L92.2455 112.538L93.76 107.836L94.9665 107.625Z" stroke="#F5F5F5" stroke-width="2" mask="url(#path-6-outside-1_1114_1146)"/>
<path d="M96.5301 106.458C96.3422 106.49 96.1752 106.465 96.029 106.382C95.8904 106.298 95.8066 106.173 95.7778 106.008C95.7331 105.752 95.7798 105.531 95.9176 105.345C96.0554 105.158 96.2559 105.042 96.5189 104.996C96.7144 104.962 96.8814 104.987 97.02 105.071C97.1662 105.154 97.2537 105.278 97.2826 105.443C97.3272 105.699 97.2768 105.921 97.1315 106.109C96.9937 106.295 96.7932 106.412 96.5301 106.458ZM95.9713 107.45L97.0875 107.255L97.0793 113.066L95.963 113.261L95.9713 107.45Z" stroke="#F5F5F5" stroke-width="2" mask="url(#path-6-outside-1_1114_1146)"/>
<path d="M101.078 112.484C100.356 112.61 99.7541 112.51 99.2712 112.184C98.7869 111.85 98.4844 111.337 98.3637 110.646C98.2391 109.932 98.2649 109.28 98.441 108.692C98.6158 108.096 98.9176 107.606 99.3462 107.221C99.781 106.827 100.314 106.576 100.945 106.465C101.442 106.379 101.887 106.402 102.282 106.534C102.676 106.659 102.978 106.881 103.188 107.201L102.503 107.936C102.354 107.699 102.15 107.529 101.892 107.427C101.634 107.325 101.355 107.3 101.054 107.353C100.671 107.42 100.341 107.597 100.066 107.885C99.7975 108.165 99.6083 108.523 99.4987 108.96C99.3953 109.389 99.387 109.851 99.4735 110.347C99.5549 110.813 99.7306 111.155 100.001 111.371C100.278 111.586 100.628 111.656 101.049 111.583C101.349 111.53 101.626 111.408 101.879 111.217C102.133 111.026 102.338 110.785 102.497 110.494L103.176 110.991C102.732 111.82 102.033 112.317 101.078 112.484Z" stroke="#F5F5F5" stroke-width="2" mask="url(#path-6-outside-1_1114_1146)"/>
<path d="M106.318 105.528C106.995 105.41 107.551 105.514 107.988 105.84C108.432 106.166 108.714 106.67 108.833 107.354C108.874 107.587 108.895 107.843 108.897 108.122L108.889 108.541L104.864 109.244L104.893 109.413C104.972 109.864 105.145 110.19 105.413 110.391C105.679 110.585 106.03 110.644 106.466 110.568C107.12 110.454 107.653 110.093 108.067 109.487L108.69 109.994C108.467 110.404 108.162 110.744 107.775 111.013C107.396 111.281 106.97 111.456 106.496 111.538C105.782 111.663 105.18 111.563 104.689 111.238C104.205 110.904 103.902 110.388 103.78 109.689C103.656 108.982 103.679 108.335 103.848 107.748C104.022 107.152 104.32 106.663 104.742 106.279C105.169 105.887 105.694 105.637 106.318 105.528ZM107.845 107.817C107.834 107.664 107.823 107.558 107.812 107.498C107.743 107.099 107.58 106.81 107.324 106.63C107.076 106.449 106.752 106.393 106.354 106.463C105.94 106.535 105.598 106.749 105.327 107.107C105.057 107.464 104.897 107.902 104.848 108.422L107.847 107.898L107.845 107.817Z" stroke="#F5F5F5" stroke-width="2" mask="url(#path-6-outside-1_1114_1146)"/>
<mask id="path-7-outside-2_1114_1146" maskUnits="userSpaceOnUse" x="53.2942" y="53.6105" width="71.0673" height="29.5953" fill="black">
<rect fill="white" x="53.2942" y="53.6105" width="71.0673" height="29.5953"/>
<path d="M59.335 77.4266C58.4597 77.5794 57.7128 77.4147 57.0942 76.9325C56.4864 76.4485 56.0967 75.7148 55.9251 74.7315C55.7478 73.7158 55.7632 72.7834 55.9713 71.9343C56.1883 71.0724 56.5715 70.3653 57.1209 69.8129C57.6703 69.2605 58.3502 68.9136 59.1606 68.7721C59.7225 68.6741 60.2267 68.6919 60.6731 68.8255C61.1195 68.9591 61.4622 69.2 61.7011 69.548L61.7335 69.5423L61.8794 68.4646L63.6137 68.1619L63.5984 74.2942C63.6019 75.4627 63.6138 76.2011 63.6342 76.5093L61.6893 76.8487C61.6768 76.3944 61.674 76.0274 61.6808 75.7479L61.6484 75.7535C61.3903 76.1883 61.0541 76.5587 60.6399 76.8649C60.2346 77.1583 59.7996 77.3456 59.335 77.4266ZM59.6412 75.7364C60.2139 75.6365 60.6719 75.3895 61.0151 74.9956C61.3564 74.5908 61.5286 74.1098 61.5315 73.5526L61.5319 71.8322C61.5271 71.6772 61.5172 71.5565 61.5021 71.47C61.4266 71.0378 61.2141 70.713 60.8644 70.4957C60.5236 70.2657 60.1209 70.1912 59.6563 70.2723C59.2241 70.3477 58.857 70.5732 58.5551 70.9488C58.2621 71.3117 58.0602 71.7812 57.9491 72.3573C57.8489 72.9316 57.8573 73.5536 57.9742 74.2236C58.0723 74.7854 58.2612 75.1979 58.5409 75.4608C58.8314 75.7219 59.1982 75.8137 59.6412 75.7364Z"/>
<path d="M69.0033 74.1024C69.4031 74.0327 69.7697 73.8685 70.1032 73.6098C70.4347 73.3404 70.7108 73.0083 70.9314 72.6135L72.1744 73.5156C71.6413 74.5439 70.799 75.2365 69.6477 75.5933L69.0986 76.6579C69.4984 76.5881 69.8341 76.6297 70.1058 76.7827C70.3882 76.9339 70.5568 77.1661 70.6115 77.4794C70.7001 77.9873 70.5585 78.4518 70.1867 78.873C69.8256 79.2924 69.3317 79.5567 68.705 79.6661C68.4349 79.7132 68.1537 79.7289 67.8614 79.7131C67.58 79.6954 67.3551 79.6512 67.1869 79.5803L67.4041 78.6238C67.7292 78.7007 68.0863 78.7052 68.4753 78.6373C68.7022 78.5977 68.881 78.5052 69.0115 78.36C69.1439 78.2255 69.195 78.0718 69.1649 77.899C69.1403 77.7585 69.0287 77.6611 68.8299 77.6067C68.6438 77.5612 68.396 77.5766 68.0864 77.6529L67.6203 77.1831L68.2996 75.8119C67.4036 75.8458 66.658 75.6252 66.0629 75.1501C65.4659 74.6641 65.0891 73.9728 64.9326 73.0759C64.7572 72.071 64.8015 71.1447 65.0656 70.2969C65.3277 69.4383 65.783 68.7298 66.4315 68.1712C67.0801 67.6126 67.8744 67.2513 68.8144 67.0872C69.5816 66.9533 70.2608 66.9851 70.852 67.1826C71.4413 67.3692 71.8829 67.6985 72.1769 68.1706L70.9401 69.5054C70.7285 69.1861 70.449 68.9565 70.1017 68.8167C69.7633 68.6642 69.3996 68.6219 69.0106 68.6898C68.5244 68.7746 68.1068 68.9978 67.7579 69.3594C67.4091 69.7209 67.1664 70.1808 67.03 70.739C66.8936 71.2973 66.8811 71.8952 66.9923 72.5327C67.0961 73.127 67.3221 73.5608 67.6704 73.834C68.0187 74.1073 68.463 74.1967 69.0033 74.1024Z"/>
<path d="M76.3503 74.4569C75.4751 74.6097 74.7281 74.445 74.1095 73.9628C73.5017 73.4788 73.112 72.7451 72.9404 71.7618C72.7631 70.7461 72.7785 69.8137 72.9866 68.9645C73.2037 68.1027 73.5869 67.3956 74.1363 66.8432C74.6856 66.2908 75.3655 65.9438 76.176 65.8024C76.7378 65.7043 77.242 65.7221 77.6884 65.8558C78.1349 65.9894 78.4775 66.2302 78.7164 66.5782L78.7488 66.5726L78.8948 65.4949L80.6291 65.1922L80.6137 71.3245C80.6172 72.493 80.6292 73.2313 80.6496 73.5395L78.7046 73.879C78.6921 73.4247 78.6893 73.0577 78.6962 72.7782L78.6638 72.7838C78.4056 73.2186 78.0694 73.589 77.6552 73.8951C77.2499 74.1886 76.8149 74.3758 76.3503 74.4569ZM76.6566 72.7667C77.2292 72.6667 77.6872 72.4198 78.0304 72.0259C78.3718 71.6211 78.5439 71.1401 78.5469 70.5829L78.5472 68.8625C78.5424 68.7075 78.5325 68.5867 78.5174 68.5003C78.442 68.0681 78.2294 67.7433 77.8797 67.526C77.5389 67.2959 77.1362 67.2215 76.6716 67.3026C76.2394 67.378 75.8723 67.6035 75.5704 67.9791C75.2775 68.342 75.0755 68.8115 74.9645 69.3876C74.8643 69.9618 74.8726 70.5839 74.9896 71.2538C75.0876 71.8157 75.2765 72.2281 75.5562 72.4911C75.8468 72.7521 76.2135 72.844 76.6566 72.7667Z"/>
<path d="M83.668 63.6931C83.333 63.7516 83.0414 63.7078 82.7933 63.5619C82.5451 63.4159 82.3965 63.2024 82.3475 62.9215C82.272 62.4893 82.3566 62.1126 82.6012 61.7916C82.8458 61.4705 83.2004 61.2695 83.6651 61.1884C84 61.1299 84.2862 61.1746 84.5236 61.3225C84.7717 61.4684 84.9203 61.6819 84.9694 61.9628C85.0448 62.395 84.9602 62.7717 84.7156 63.0927C84.471 63.4138 84.1218 63.6139 83.668 63.6931ZM82.6327 64.8425L84.6911 64.4833L84.6792 72.8362L82.6208 73.1955L82.6327 64.8425Z"/>
<path d="M90.2739 72.0268C89.5392 72.155 88.9363 72.0821 88.4654 71.808C88.0052 71.532 87.7195 71.0752 87.6082 70.4377C87.5762 70.254 87.5584 70.0567 87.555 69.8458L87.5602 65.5692L86.0853 65.8266L86.0921 64.2387L87.567 63.9813L87.5587 61.8282L89.5639 60.877L89.6287 60.8657L89.6416 63.6192L91.9918 63.209L91.985 64.7969L89.6348 65.2071L89.6217 69.151C89.634 69.3493 89.6459 69.4808 89.6572 69.5457C89.7684 70.1832 90.1915 70.4378 90.9262 70.3096C91.3476 70.236 91.7415 70.1005 92.1079 69.9029L92.2081 71.3385C91.7291 71.6559 91.0843 71.8854 90.2739 72.0268Z"/>
<path d="M97.084 62.1533C98.0997 61.976 98.9439 62.1237 99.6165 62.5965C100.3 63.0673 100.728 63.7998 100.902 64.7939C100.964 65.1505 100.99 65.519 100.978 65.8996L100.951 66.6058L95.3105 67.5903C95.4194 68.1503 95.6398 68.5516 95.9716 68.7943C96.3143 69.0352 96.7612 69.1075 97.3123 69.0113C97.7877 68.9283 98.2004 68.7728 98.5503 68.5447C98.911 68.3147 99.2582 67.9758 99.592 67.5278L100.719 68.4334C100.401 69.0346 99.9339 69.5503 99.3186 69.9806C98.7015 70.4 98.0255 70.6739 97.2908 70.8021C96.2318 70.987 95.3381 70.8423 94.6096 70.3682C93.881 69.8941 93.429 69.1546 93.2536 68.1497C93.0783 67.1448 93.1226 66.2184 93.3866 65.3707C93.6487 64.5121 94.0987 63.8045 94.7364 63.2478C95.383 62.6784 96.1656 62.3136 97.084 62.1533ZM99.0022 65.3927C98.9328 64.8035 98.742 64.3803 98.4299 64.123C98.1178 63.8657 97.6916 63.7842 97.1513 63.8785C96.6434 63.9672 96.2189 64.2139 95.8775 64.6186C95.5343 65.0125 95.3281 65.5217 95.2589 66.1462L99.0192 65.4899L99.0022 65.3927Z"/>
<path d="M102.352 63.4385C102.35 62.4701 102.332 61.794 102.299 61.4102L104.26 61.0679C104.334 61.556 104.358 62.0418 104.331 62.5253L104.326 62.693L104.391 62.6817C104.6 62.0886 104.957 61.5864 105.464 61.175C105.982 60.7617 106.582 60.4956 107.263 60.3768C107.392 60.3542 107.552 60.343 107.741 60.3434L107.751 62.0285C107.704 62.0144 107.573 62.0262 107.357 62.064C106.838 62.1545 106.355 62.3836 105.907 62.7513C105.459 63.119 105.098 63.5717 104.824 64.1093C104.56 64.6343 104.426 65.1754 104.423 65.7327L104.41 69.3926L102.336 69.7547L102.352 63.4385Z"/>
<path d="M110.133 59.0742C109.798 59.1326 109.506 59.0889 109.258 58.9429C109.01 58.7969 108.861 58.5835 108.812 58.3025C108.737 57.8703 108.821 57.4937 109.066 57.1726C109.311 56.8516 109.665 56.6505 110.13 56.5694C110.465 56.5109 110.751 56.5556 110.988 56.7035C111.237 56.8495 111.385 57.0629 111.434 57.3439C111.51 57.7761 111.425 58.1527 111.18 58.4738C110.936 58.7948 110.587 58.995 110.133 59.0742ZM109.097 60.2236L111.156 59.8643L111.144 68.2173L109.086 68.5766L109.097 60.2236Z"/>
<path d="M116.285 67.4871C115.41 67.6398 114.663 67.4751 114.044 66.9929C113.436 66.5089 113.047 65.7752 112.875 64.7919C112.698 63.7762 112.713 62.8438 112.921 61.9947C113.138 61.1328 113.521 60.4257 114.071 59.8733C114.62 59.3209 115.3 58.974 116.111 58.8325C116.672 58.7345 117.177 58.7523 117.623 58.8859C118.069 59.0195 118.412 59.2604 118.651 59.6084L118.683 59.6027L118.829 58.525L120.564 58.2223L120.548 64.3546C120.552 65.5231 120.564 66.2615 120.584 66.5697L118.639 66.9091C118.627 66.4548 118.624 66.0878 118.631 65.8083L118.598 65.8139C118.34 66.2487 118.004 66.6191 117.59 66.9253C117.185 67.2187 116.75 67.406 116.285 67.4871ZM116.591 65.7968C117.164 65.6969 117.622 65.4499 117.965 65.056C118.306 64.6512 118.479 64.1702 118.481 63.613L118.482 61.8926C118.477 61.7376 118.467 61.6169 118.452 61.5304C118.377 61.0982 118.164 60.7734 117.814 60.5561C117.474 60.3261 117.071 60.2516 116.606 60.3327C116.174 60.4081 115.807 60.6336 115.505 61.0092C115.212 61.3721 115.01 61.8416 114.899 62.4177C114.799 62.992 114.807 63.614 114.924 64.284C115.022 64.8459 115.211 65.2583 115.491 65.5212C115.781 65.7823 116.148 65.8741 116.591 65.7968Z"/>
</mask>
<path d="M59.335 77.4266C58.4597 77.5794 57.7128 77.4147 57.0942 76.9325C56.4864 76.4485 56.0967 75.7148 55.9251 74.7315C55.7478 73.7158 55.7632 72.7834 55.9713 71.9343C56.1883 71.0724 56.5715 70.3653 57.1209 69.8129C57.6703 69.2605 58.3502 68.9136 59.1606 68.7721C59.7225 68.6741 60.2267 68.6919 60.6731 68.8255C61.1195 68.9591 61.4622 69.2 61.7011 69.548L61.7335 69.5423L61.8794 68.4646L63.6137 68.1619L63.5984 74.2942C63.6019 75.4627 63.6138 76.2011 63.6342 76.5093L61.6893 76.8487C61.6768 76.3944 61.674 76.0274 61.6808 75.7479L61.6484 75.7535C61.3903 76.1883 61.0541 76.5587 60.6399 76.8649C60.2346 77.1583 59.7996 77.3456 59.335 77.4266ZM59.6412 75.7364C60.2139 75.6365 60.6719 75.3895 61.0151 74.9956C61.3564 74.5908 61.5286 74.1098 61.5315 73.5526L61.5319 71.8322C61.5271 71.6772 61.5172 71.5565 61.5021 71.47C61.4266 71.0378 61.2141 70.713 60.8644 70.4957C60.5236 70.2657 60.1209 70.1912 59.6563 70.2723C59.2241 70.3477 58.857 70.5732 58.5551 70.9488C58.2621 71.3117 58.0602 71.7812 57.9491 72.3573C57.8489 72.9316 57.8573 73.5536 57.9742 74.2236C58.0723 74.7854 58.2612 75.1979 58.5409 75.4608C58.8314 75.7219 59.1982 75.8137 59.6412 75.7364Z" fill="black"/>
<path d="M69.0033 74.1024C69.4031 74.0327 69.7697 73.8685 70.1032 73.6098C70.4347 73.3404 70.7108 73.0083 70.9314 72.6135L72.1744 73.5156C71.6413 74.5439 70.799 75.2365 69.6477 75.5933L69.0986 76.6579C69.4984 76.5881 69.8341 76.6297 70.1058 76.7827C70.3882 76.9339 70.5568 77.1661 70.6115 77.4794C70.7001 77.9873 70.5585 78.4518 70.1867 78.873C69.8256 79.2924 69.3317 79.5567 68.705 79.6661C68.4349 79.7132 68.1537 79.7289 67.8614 79.7131C67.58 79.6954 67.3551 79.6512 67.1869 79.5803L67.4041 78.6238C67.7292 78.7007 68.0863 78.7052 68.4753 78.6373C68.7022 78.5977 68.881 78.5052 69.0115 78.36C69.1439 78.2255 69.195 78.0718 69.1649 77.899C69.1403 77.7585 69.0287 77.6611 68.8299 77.6067C68.6438 77.5612 68.396 77.5766 68.0864 77.6529L67.6203 77.1831L68.2996 75.8119C67.4036 75.8458 66.658 75.6252 66.0629 75.1501C65.4659 74.6641 65.0891 73.9728 64.9326 73.0759C64.7572 72.071 64.8015 71.1447 65.0656 70.2969C65.3277 69.4383 65.783 68.7298 66.4315 68.1712C67.0801 67.6126 67.8744 67.2513 68.8144 67.0872C69.5816 66.9533 70.2608 66.9851 70.852 67.1826C71.4413 67.3692 71.8829 67.6985 72.1769 68.1706L70.9401 69.5054C70.7285 69.1861 70.449 68.9565 70.1017 68.8167C69.7633 68.6642 69.3996 68.6219 69.0106 68.6898C68.5244 68.7746 68.1068 68.9978 67.7579 69.3594C67.4091 69.7209 67.1664 70.1808 67.03 70.739C66.8936 71.2973 66.8811 71.8952 66.9923 72.5327C67.0961 73.127 67.3221 73.5608 67.6704 73.834C68.0187 74.1073 68.463 74.1967 69.0033 74.1024Z" fill="black"/>
<path d="M76.3503 74.4569C75.4751 74.6097 74.7281 74.445 74.1095 73.9628C73.5017 73.4788 73.112 72.7451 72.9404 71.7618C72.7631 70.7461 72.7785 69.8137 72.9866 68.9645C73.2037 68.1027 73.5869 67.3956 74.1363 66.8432C74.6856 66.2908 75.3655 65.9438 76.176 65.8024C76.7378 65.7043 77.242 65.7221 77.6884 65.8558C78.1349 65.9894 78.4775 66.2302 78.7164 66.5782L78.7488 66.5726L78.8948 65.4949L80.6291 65.1922L80.6137 71.3245C80.6172 72.493 80.6292 73.2313 80.6496 73.5395L78.7046 73.879C78.6921 73.4247 78.6893 73.0577 78.6962 72.7782L78.6638 72.7838C78.4056 73.2186 78.0694 73.589 77.6552 73.8951C77.2499 74.1886 76.8149 74.3758 76.3503 74.4569ZM76.6566 72.7667C77.2292 72.6667 77.6872 72.4198 78.0304 72.0259C78.3718 71.6211 78.5439 71.1401 78.5469 70.5829L78.5472 68.8625C78.5424 68.7075 78.5325 68.5867 78.5174 68.5003C78.442 68.0681 78.2294 67.7433 77.8797 67.526C77.5389 67.2959 77.1362 67.2215 76.6716 67.3026C76.2394 67.378 75.8723 67.6035 75.5704 67.9791C75.2775 68.342 75.0755 68.8115 74.9645 69.3876C74.8643 69.9618 74.8726 70.5839 74.9896 71.2538C75.0876 71.8157 75.2765 72.2281 75.5562 72.4911C75.8468 72.7521 76.2135 72.844 76.6566 72.7667Z" fill="black"/>
<path d="M83.668 63.6931C83.333 63.7516 83.0414 63.7078 82.7933 63.5619C82.5451 63.4159 82.3965 63.2024 82.3475 62.9215C82.272 62.4893 82.3566 62.1126 82.6012 61.7916C82.8458 61.4705 83.2004 61.2695 83.6651 61.1884C84 61.1299 84.2862 61.1746 84.5236 61.3225C84.7717 61.4684 84.9203 61.6819 84.9694 61.9628C85.0448 62.395 84.9602 62.7717 84.7156 63.0927C84.471 63.4138 84.1218 63.6139 83.668 63.6931ZM82.6327 64.8425L84.6911 64.4833L84.6792 72.8362L82.6208 73.1955L82.6327 64.8425Z" fill="black"/>
<path d="M90.2739 72.0268C89.5392 72.155 88.9363 72.0821 88.4654 71.808C88.0052 71.532 87.7195 71.0752 87.6082 70.4377C87.5762 70.254 87.5584 70.0567 87.555 69.8458L87.5602 65.5692L86.0853 65.8266L86.0921 64.2387L87.567 63.9813L87.5587 61.8282L89.5639 60.877L89.6287 60.8657L89.6416 63.6192L91.9918 63.209L91.985 64.7969L89.6348 65.2071L89.6217 69.151C89.634 69.3493 89.6459 69.4808 89.6572 69.5457C89.7684 70.1832 90.1915 70.4378 90.9262 70.3096C91.3476 70.236 91.7415 70.1005 92.1079 69.9029L92.2081 71.3385C91.7291 71.6559 91.0843 71.8854 90.2739 72.0268Z" fill="black"/>
<path d="M97.084 62.1533C98.0997 61.976 98.9439 62.1237 99.6165 62.5965C100.3 63.0673 100.728 63.7998 100.902 64.7939C100.964 65.1505 100.99 65.519 100.978 65.8996L100.951 66.6058L95.3105 67.5903C95.4194 68.1503 95.6398 68.5516 95.9716 68.7943C96.3143 69.0352 96.7612 69.1075 97.3123 69.0113C97.7877 68.9283 98.2004 68.7728 98.5503 68.5447C98.911 68.3147 99.2582 67.9758 99.592 67.5278L100.719 68.4334C100.401 69.0346 99.9339 69.5503 99.3186 69.9806C98.7015 70.4 98.0255 70.6739 97.2908 70.8021C96.2318 70.987 95.3381 70.8423 94.6096 70.3682C93.881 69.8941 93.429 69.1546 93.2536 68.1497C93.0783 67.1448 93.1226 66.2184 93.3866 65.3707C93.6487 64.5121 94.0987 63.8045 94.7364 63.2478C95.383 62.6784 96.1656 62.3136 97.084 62.1533ZM99.0022 65.3927C98.9328 64.8035 98.742 64.3803 98.4299 64.123C98.1178 63.8657 97.6916 63.7842 97.1513 63.8785C96.6434 63.9672 96.2189 64.2139 95.8775 64.6186C95.5343 65.0125 95.3281 65.5217 95.2589 66.1462L99.0192 65.4899L99.0022 65.3927Z" fill="black"/>
<path d="M102.352 63.4385C102.35 62.4701 102.332 61.794 102.299 61.4102L104.26 61.0679C104.334 61.556 104.358 62.0418 104.331 62.5253L104.326 62.693L104.391 62.6817C104.6 62.0886 104.957 61.5864 105.464 61.175C105.982 60.7617 106.582 60.4956 107.263 60.3768C107.392 60.3542 107.552 60.343 107.741 60.3434L107.751 62.0285C107.704 62.0144 107.573 62.0262 107.357 62.064C106.838 62.1545 106.355 62.3836 105.907 62.7513C105.459 63.119 105.098 63.5717 104.824 64.1093C104.56 64.6343 104.426 65.1754 104.423 65.7327L104.41 69.3926L102.336 69.7547L102.352 63.4385Z" fill="black"/>
<path d="M110.133 59.0742C109.798 59.1326 109.506 59.0889 109.258 58.9429C109.01 58.7969 108.861 58.5835 108.812 58.3025C108.737 57.8703 108.821 57.4937 109.066 57.1726C109.311 56.8516 109.665 56.6505 110.13 56.5694C110.465 56.5109 110.751 56.5556 110.988 56.7035C111.237 56.8495 111.385 57.0629 111.434 57.3439C111.51 57.7761 111.425 58.1527 111.18 58.4738C110.936 58.7948 110.587 58.995 110.133 59.0742ZM109.097 60.2236L111.156 59.8643L111.144 68.2173L109.086 68.5766L109.097 60.2236Z" fill="black"/>
<path d="M116.285 67.4871C115.41 67.6398 114.663 67.4751 114.044 66.9929C113.436 66.5089 113.047 65.7752 112.875 64.7919C112.698 63.7762 112.713 62.8438 112.921 61.9947C113.138 61.1328 113.521 60.4257 114.071 59.8733C114.62 59.3209 115.3 58.974 116.111 58.8325C116.672 58.7345 117.177 58.7523 117.623 58.8859C118.069 59.0195 118.412 59.2604 118.651 59.6084L118.683 59.6027L118.829 58.525L120.564 58.2223L120.548 64.3546C120.552 65.5231 120.564 66.2615 120.584 66.5697L118.639 66.9091C118.627 66.4548 118.624 66.0878 118.631 65.8083L118.598 65.8139C118.34 66.2487 118.004 66.6191 117.59 66.9253C117.185 67.2187 116.75 67.406 116.285 67.4871ZM116.591 65.7968C117.164 65.6969 117.622 65.4499 117.965 65.056C118.306 64.6512 118.479 64.1702 118.481 63.613L118.482 61.8926C118.477 61.7376 118.467 61.6169 118.452 61.5304C118.377 61.0982 118.164 60.7734 117.814 60.5561C117.474 60.3261 117.071 60.2516 116.606 60.3327C116.174 60.4081 115.807 60.6336 115.505 61.0092C115.212 61.3721 115.01 61.8416 114.899 62.4177C114.799 62.992 114.807 63.614 114.924 64.284C115.022 64.8459 115.211 65.2583 115.491 65.5212C115.781 65.7823 116.148 65.8741 116.591 65.7968Z" fill="black"/>
<path d="M59.335 77.4266C58.4597 77.5794 57.7128 77.4147 57.0942 76.9325C56.4864 76.4485 56.0967 75.7148 55.9251 74.7315C55.7478 73.7158 55.7632 72.7834 55.9713 71.9343C56.1883 71.0724 56.5715 70.3653 57.1209 69.8129C57.6703 69.2605 58.3502 68.9136 59.1606 68.7721C59.7225 68.6741 60.2267 68.6919 60.6731 68.8255C61.1195 68.9591 61.4622 69.2 61.7011 69.548L61.7335 69.5423L61.8794 68.4646L63.6137 68.1619L63.5984 74.2942C63.6019 75.4627 63.6138 76.2011 63.6342 76.5093L61.6893 76.8487C61.6768 76.3944 61.674 76.0274 61.6808 75.7479L61.6484 75.7535C61.3903 76.1883 61.0541 76.5587 60.6399 76.8649C60.2346 77.1583 59.7996 77.3456 59.335 77.4266ZM59.6412 75.7364C60.2139 75.6365 60.6719 75.3895 61.0151 74.9956C61.3564 74.5908 61.5286 74.1098 61.5315 73.5526L61.5319 71.8322C61.5271 71.6772 61.5172 71.5565 61.5021 71.47C61.4266 71.0378 61.2141 70.713 60.8644 70.4957C60.5236 70.2657 60.1209 70.1912 59.6563 70.2723C59.2241 70.3477 58.857 70.5732 58.5551 70.9488C58.2621 71.3117 58.0602 71.7812 57.9491 72.3573C57.8489 72.9316 57.8573 73.5536 57.9742 74.2236C58.0723 74.7854 58.2612 75.1979 58.5409 75.4608C58.8314 75.7219 59.1982 75.8137 59.6412 75.7364Z" stroke="white" stroke-width="2" mask="url(#path-7-outside-2_1114_1146)"/>
<path d="M69.0033 74.1024C69.4031 74.0327 69.7697 73.8685 70.1032 73.6098C70.4347 73.3404 70.7108 73.0083 70.9314 72.6135L72.1744 73.5156C71.6413 74.5439 70.799 75.2365 69.6477 75.5933L69.0986 76.6579C69.4984 76.5881 69.8341 76.6297 70.1058 76.7827C70.3882 76.9339 70.5568 77.1661 70.6115 77.4794C70.7001 77.9873 70.5585 78.4518 70.1867 78.873C69.8256 79.2924 69.3317 79.5567 68.705 79.6661C68.4349 79.7132 68.1537 79.7289 67.8614 79.7131C67.58 79.6954 67.3551 79.6512 67.1869 79.5803L67.4041 78.6238C67.7292 78.7007 68.0863 78.7052 68.4753 78.6373C68.7022 78.5977 68.881 78.5052 69.0115 78.36C69.1439 78.2255 69.195 78.0718 69.1649 77.899C69.1403 77.7585 69.0287 77.6611 68.8299 77.6067C68.6438 77.5612 68.396 77.5766 68.0864 77.6529L67.6203 77.1831L68.2996 75.8119C67.4036 75.8458 66.658 75.6252 66.0629 75.1501C65.4659 74.6641 65.0891 73.9728 64.9326 73.0759C64.7572 72.071 64.8015 71.1447 65.0656 70.2969C65.3277 69.4383 65.783 68.7298 66.4315 68.1712C67.0801 67.6126 67.8744 67.2513 68.8144 67.0872C69.5816 66.9533 70.2608 66.9851 70.852 67.1826C71.4413 67.3692 71.8829 67.6985 72.1769 68.1706L70.9401 69.5054C70.7285 69.1861 70.449 68.9565 70.1017 68.8167C69.7633 68.6642 69.3996 68.6219 69.0106 68.6898C68.5244 68.7746 68.1068 68.9978 67.7579 69.3594C67.4091 69.7209 67.1664 70.1808 67.03 70.739C66.8936 71.2973 66.8811 71.8952 66.9923 72.5327C67.0961 73.127 67.3221 73.5608 67.6704 73.834C68.0187 74.1073 68.463 74.1967 69.0033 74.1024Z" stroke="white" stroke-width="2" mask="url(#path-7-outside-2_1114_1146)"/>
<path d="M76.3503 74.4569C75.4751 74.6097 74.7281 74.445 74.1095 73.9628C73.5017 73.4788 73.112 72.7451 72.9404 71.7618C72.7631 70.7461 72.7785 69.8137 72.9866 68.9645C73.2037 68.1027 73.5869 67.3956 74.1363 66.8432C74.6856 66.2908 75.3655 65.9438 76.176 65.8024C76.7378 65.7043 77.242 65.7221 77.6884 65.8558C78.1349 65.9894 78.4775 66.2302 78.7164 66.5782L78.7488 66.5726L78.8948 65.4949L80.6291 65.1922L80.6137 71.3245C80.6172 72.493 80.6292 73.2313 80.6496 73.5395L78.7046 73.879C78.6921 73.4247 78.6893 73.0577 78.6962 72.7782L78.6638 72.7838C78.4056 73.2186 78.0694 73.589 77.6552 73.8951C77.2499 74.1886 76.8149 74.3758 76.3503 74.4569ZM76.6566 72.7667C77.2292 72.6667 77.6872 72.4198 78.0304 72.0259C78.3718 71.6211 78.5439 71.1401 78.5469 70.5829L78.5472 68.8625C78.5424 68.7075 78.5325 68.5867 78.5174 68.5003C78.442 68.0681 78.2294 67.7433 77.8797 67.526C77.5389 67.2959 77.1362 67.2215 76.6716 67.3026C76.2394 67.378 75.8723 67.6035 75.5704 67.9791C75.2775 68.342 75.0755 68.8115 74.9645 69.3876C74.8643 69.9618 74.8726 70.5839 74.9896 71.2538C75.0876 71.8157 75.2765 72.2281 75.5562 72.4911C75.8468 72.7521 76.2135 72.844 76.6566 72.7667Z" stroke="white" stroke-width="2" mask="url(#path-7-outside-2_1114_1146)"/>
<path d="M83.668 63.6931C83.333 63.7516 83.0414 63.7078 82.7933 63.5619C82.5451 63.4159 82.3965 63.2024 82.3475 62.9215C82.272 62.4893 82.3566 62.1126 82.6012 61.7916C82.8458 61.4705 83.2004 61.2695 83.6651 61.1884C84 61.1299 84.2862 61.1746 84.5236 61.3225C84.7717 61.4684 84.9203 61.6819 84.9694 61.9628C85.0448 62.395 84.9602 62.7717 84.7156 63.0927C84.471 63.4138 84.1218 63.6139 83.668 63.6931ZM82.6327 64.8425L84.6911 64.4833L84.6792 72.8362L82.6208 73.1955L82.6327 64.8425Z" stroke="white" stroke-width="2" mask="url(#path-7-outside-2_1114_1146)"/>
<path d="M90.2739 72.0268C89.5392 72.155 88.9363 72.0821 88.4654 71.808C88.0052 71.532 87.7195 71.0752 87.6082 70.4377C87.5762 70.254 87.5584 70.0567 87.555 69.8458L87.5602 65.5692L86.0853 65.8266L86.0921 64.2387L87.567 63.9813L87.5587 61.8282L89.5639 60.877L89.6287 60.8657L89.6416 63.6192L91.9918 63.209L91.985 64.7969L89.6348 65.2071L89.6217 69.151C89.634 69.3493 89.6459 69.4808 89.6572 69.5457C89.7684 70.1832 90.1915 70.4378 90.9262 70.3096C91.3476 70.236 91.7415 70.1005 92.1079 69.9029L92.2081 71.3385C91.7291 71.6559 91.0843 71.8854 90.2739 72.0268Z" stroke="white" stroke-width="2" mask="url(#path-7-outside-2_1114_1146)"/>
<path d="M97.084 62.1533C98.0997 61.976 98.9439 62.1237 99.6165 62.5965C100.3 63.0673 100.728 63.7998 100.902 64.7939C100.964 65.1505 100.99 65.519 100.978 65.8996L100.951 66.6058L95.3105 67.5903C95.4194 68.1503 95.6398 68.5516 95.9716 68.7943C96.3143 69.0352 96.7612 69.1075 97.3123 69.0113C97.7877 68.9283 98.2004 68.7728 98.5503 68.5447C98.911 68.3147 99.2582 67.9758 99.592 67.5278L100.719 68.4334C100.401 69.0346 99.9339 69.5503 99.3186 69.9806C98.7015 70.4 98.0255 70.6739 97.2908 70.8021C96.2318 70.987 95.3381 70.8423 94.6096 70.3682C93.881 69.8941 93.429 69.1546 93.2536 68.1497C93.0783 67.1448 93.1226 66.2184 93.3866 65.3707C93.6487 64.5121 94.0987 63.8045 94.7364 63.2478C95.383 62.6784 96.1656 62.3136 97.084 62.1533ZM99.0022 65.3927C98.9328 64.8035 98.742 64.3803 98.4299 64.123C98.1178 63.8657 97.6916 63.7842 97.1513 63.8785C96.6434 63.9672 96.2189 64.2139 95.8775 64.6186C95.5343 65.0125 95.3281 65.5217 95.2589 66.1462L99.0192 65.4899L99.0022 65.3927Z" stroke="white" stroke-width="2" mask="url(#path-7-outside-2_1114_1146)"/>
<path d="M102.352 63.4385C102.35 62.4701 102.332 61.794 102.299 61.4102L104.26 61.0679C104.334 61.556 104.358 62.0418 104.331 62.5253L104.326 62.693L104.391 62.6817C104.6 62.0886 104.957 61.5864 105.464 61.175C105.982 60.7617 106.582 60.4956 107.263 60.3768C107.392 60.3542 107.552 60.343 107.741 60.3434L107.751 62.0285C107.704 62.0144 107.573 62.0262 107.357 62.064C106.838 62.1545 106.355 62.3836 105.907 62.7513C105.459 63.119 105.098 63.5717 104.824 64.1093C104.56 64.6343 104.426 65.1754 104.423 65.7327L104.41 69.3926L102.336 69.7547L102.352 63.4385Z" stroke="white" stroke-width="2" mask="url(#path-7-outside-2_1114_1146)"/>
<path d="M110.133 59.0742C109.798 59.1326 109.506 59.0889 109.258 58.9429C109.01 58.7969 108.861 58.5835 108.812 58.3025C108.737 57.8703 108.821 57.4937 109.066 57.1726C109.311 56.8516 109.665 56.6505 110.13 56.5694C110.465 56.5109 110.751 56.5556 110.988 56.7035C111.237 56.8495 111.385 57.0629 111.434 57.3439C111.51 57.7761 111.425 58.1527 111.18 58.4738C110.936 58.7948 110.587 58.995 110.133 59.0742ZM109.097 60.2236L111.156 59.8643L111.144 68.2173L109.086 68.5766L109.097 60.2236Z" stroke="white" stroke-width="2" mask="url(#path-7-outside-2_1114_1146)"/>
<path d="M116.285 67.4871C115.41 67.6398 114.663 67.4751 114.044 66.9929C113.436 66.5089 113.047 65.7752 112.875 64.7919C112.698 63.7762 112.713 62.8438 112.921 61.9947C113.138 61.1328 113.521 60.4257 114.071 59.8733C114.62 59.3209 115.3 58.974 116.111 58.8325C116.672 58.7345 117.177 58.7523 117.623 58.8859C118.069 59.0195 118.412 59.2604 118.651 59.6084L118.683 59.6027L118.829 58.525L120.564 58.2223L120.548 64.3546C120.552 65.5231 120.564 66.2615 120.584 66.5697L118.639 66.9091C118.627 66.4548 118.624 66.0878 118.631 65.8083L118.598 65.8139C118.34 66.2487 118.004 66.6191 117.59 66.9253C117.185 67.2187 116.75 67.406 116.285 67.4871ZM116.591 65.7968C117.164 65.6969 117.622 65.4499 117.965 65.056C118.306 64.6512 118.479 64.1702 118.481 63.613L118.482 61.8926C118.477 61.7376 118.467 61.6169 118.452 61.5304C118.377 61.0982 118.164 60.7734 117.814 60.5561C117.474 60.3261 117.071 60.2516 116.606 60.3327C116.174 60.4081 115.807 60.6336 115.505 61.0092C115.212 61.3721 115.01 61.8416 114.899 62.4177C114.799 62.992 114.807 63.614 114.924 64.284C115.022 64.8459 115.211 65.2583 115.491 65.5212C115.781 65.7823 116.148 65.8741 116.591 65.7968Z" stroke="white" stroke-width="2" mask="url(#path-7-outside-2_1114_1146)"/>
<defs>
<linearGradient id="paint0_linear_1114_1146" x1="45.7846" y1="63.5544" x2="51.8651" y2="64.2698" gradientUnits="userSpaceOnUse">
<stop offset="0.315968" stop-color="white" stop-opacity="0"/>
<stop offset="0.550347" stop-color="white" stop-opacity="0.77"/>
</linearGradient>
<linearGradient id="paint1_linear_1114_1146" x1="52.5804" y1="64.6275" x2="56.8725" y2="69.2772" gradientUnits="userSpaceOnUse">
<stop offset="0.34201" stop-color="white" stop-opacity="0.88"/>
<stop offset="0.664933" stop-opacity="0"/>
</linearGradient>
</defs>
</svg>
