<svg width="51" height="51" viewBox="0 0 51 51" fill="none" xmlns="http://www.w3.org/2000/svg">
<path d="M6 31.9974H16.998V21.1484H6V31.9974Z" fill="#FF3C65"/>
<path d="M28.5317 23.0437H30.5793V21H28.5317V23.0437Z" fill="#FF3C65"/>
<path d="M13.818 26.4988C13.8188 26.9408 13.6886 27.3731 13.4437 27.741C13.1988 28.1089 12.8502 28.3959 12.4421 28.5656C12.0341 28.7354 11.5848 28.7802 11.1512 28.6945C10.7176 28.6089 10.3192 28.3965 10.0064 28.0842C9.69355 27.772 9.48037 27.374 9.39383 26.9406C9.30728 26.5072 9.35126 26.0579 9.5202 25.6494C9.68913 25.241 9.97542 24.8919 10.3428 24.6463C10.7103 24.4006 11.1423 24.2695 11.5843 24.2695C11.8773 24.2692 12.1676 24.3267 12.4384 24.4386C12.7093 24.5504 12.9554 24.7146 13.1628 24.9216C13.3702 25.1286 13.5349 25.3744 13.6473 25.645C13.7597 25.9157 13.8177 26.2058 13.818 26.4988Z" fill="#FDD303"/>
<path d="M23.3305 31.998H18.9038V21H22.7625C23.9156 21 24.6778 21.2304 25.3077 21.7699C25.6341 22.04 25.8975 22.3782 26.0795 22.7608C26.2615 23.1434 26.3577 23.5612 26.3613 23.9849C26.3485 24.6656 26.0893 25.3186 25.6318 25.8229C26.1409 26.0741 26.5672 26.4661 26.86 26.9524C27.1705 27.4588 27.3347 28.0414 27.3343 28.6354C27.3312 29.0806 27.2376 29.5205 27.0593 29.9284C26.8809 30.3363 26.6214 30.7037 26.2967 31.0082C25.9631 31.3326 25.5624 31.5799 25.1229 31.7327C24.545 31.923 23.9388 32.0127 23.3305 31.998ZM21.0927 27.2263V30.2598H23.2813C23.97 30.2598 24.4339 30.1025 24.7405 29.7649C25.0008 29.4884 25.1457 29.1229 25.1457 28.7432C25.1457 28.3634 25.0008 27.9979 24.7405 27.7214C24.4336 27.3838 23.9706 27.2265 23.2813 27.2265L21.0927 27.2263ZM21.126 23.0168V25.3992H22.8942C23.0528 25.4026 23.2105 25.3743 23.358 25.316C23.5055 25.2576 23.6399 25.1704 23.7533 25.0595C23.8666 24.9485 23.9567 24.816 24.0182 24.6698C24.0797 24.5235 24.1114 24.3665 24.1114 24.2078C24.1114 24.0492 24.0797 23.8922 24.0182 23.7459C23.9567 23.5997 23.8666 23.4672 23.7533 23.3562C23.6399 23.2453 23.5055 23.1581 23.358 23.0997C23.2105 23.0414 23.0528 23.0131 22.8942 23.0165H21.1257L21.126 23.0168Z" fill="white"/>
<path d="M36.2028 25.9498L36.1929 24.3001H33.9592V22.6504H31.9116L31.9215 31.9987H35.6443V30.349H33.9691V25.9498H36.2028Z" fill="white"/>
<path d="M43.6487 24.3008H37.3199V25.9505H40.8566L37.1338 30.3497V31.9994H43.6487V30.3497H39.5534L43.6487 25.584V24.3008Z" fill="white"/>
<path d="M28.5713 26.5006V31.9996H30.6188V24.4844H28.5713V26.5006Z" fill="white"/>
</svg>
