<svg width="159" height="159" viewBox="0 0 159 159" fill="none" xmlns="http://www.w3.org/2000/svg">
<circle cx="79.5" cy="79.4997" r="72.4333" fill="#FF0000"/>
<path d="M18.3726 116.246C21.919 114.079 25.367 112.109 28.8149 109.941C31.3763 114.079 34.2332 117.822 37.6811 121.27C41.1291 124.718 44.8726 127.575 49.0101 130.137C46.8428 133.683 44.8726 137.131 42.7053 140.579C32.6569 134.373 24.6774 126.393 18.3726 116.246Z" fill="#FAD424"/>
<path d="M42.7054 18.3232C44.8727 21.8697 46.8429 25.3177 49.0102 28.7656C40.7351 33.8883 34.0363 40.4887 28.8151 48.9608C25.3671 46.7935 21.8206 44.8232 18.2742 42.656C24.579 32.6076 32.6571 24.6281 42.7054 18.3232Z" fill="#FAD424"/>
<path d="M109.99 28.8643C112.157 25.3178 114.127 21.8698 116.295 18.4219C126.441 24.5297 134.421 32.6077 140.627 42.7546C137.081 44.9219 133.633 46.8921 130.185 49.0594C124.964 40.7843 118.265 33.9869 109.99 28.8643Z" fill="#FAD424"/>
<path d="M109.99 130.037C121.417 121.565 121.417 121.565 130.185 109.842C133.633 111.812 137.081 113.979 140.43 116.147C138.164 122.55 124.471 136.342 116.295 140.479C114.127 137.031 112.157 133.682 109.99 130.037Z" fill="#FAD424"/>
<path d="M62.3096 148.656C63.2947 144.617 64.2798 140.775 65.265 136.834C69.9936 138.016 74.7222 138.509 79.5493 138.509C84.278 138.509 89.0066 137.918 93.8337 136.834C94.8189 140.873 95.804 144.715 96.7891 148.656C85.1646 151.512 73.8356 151.414 62.3096 148.656Z" fill="#FAD424"/>
<path d="M148.705 96.6417C144.666 95.6565 140.824 94.6714 136.884 93.6863C138.066 88.9576 138.559 84.229 138.559 79.4019C138.559 74.6733 137.967 69.9446 136.884 65.1175C140.923 64.1324 144.765 63.1472 148.705 62.1621C151.562 73.7866 151.562 85.2142 148.705 96.6417Z" fill="#FAD424"/>
<path d="M65.265 22.1657C64.2798 18.1267 63.2947 14.2847 62.3096 10.3442C73.7371 7.5858 85.1646 7.5858 96.7891 10.3442C95.804 14.3832 94.8189 18.2252 93.8337 22.1657C89.1051 20.9836 84.3765 20.491 79.5493 20.491C74.8207 20.491 70.0921 20.8851 65.265 22.1657Z" fill="#FAD424"/>
<path d="M10.1961 62.3584C14.2351 63.3435 18.0771 64.3287 22.0176 65.3138C19.7518 74.8696 19.7518 84.3268 22.0176 93.784C17.9786 94.7692 14.1366 95.7543 10.1961 96.7394C7.53621 85.2134 7.53621 73.7859 10.1961 62.3584Z" fill="#FAD424"/>
<path d="M47.7295 59.9947C47.7295 55.8572 49.2072 52.3107 51.867 49.4539C54.5269 46.597 57.9748 45.1193 62.0139 45.1193C66.0529 45.1193 69.3038 46.597 72.1607 49.5524C75.0176 52.4092 76.2983 55.9557 76.2983 60.0933C76.2983 64.2308 74.8206 67.7773 72.1607 70.6341C69.3038 73.491 66.0529 74.9687 62.0139 74.9687C57.9748 74.9687 54.6254 73.491 51.867 70.6341C49.1087 67.7773 47.7295 64.2308 47.7295 59.9947ZM57.2853 59.9947C57.2853 61.4724 57.6793 62.7531 58.7629 63.7382C59.7481 64.7234 60.7332 65.3145 62.0139 65.3145C63.2945 65.3145 64.4767 64.7234 65.4618 63.7382C66.447 62.7531 66.9395 61.4724 66.9395 59.9947C66.9395 58.5171 66.5455 57.2364 65.4618 56.2512C64.3782 55.2661 63.4916 54.675 62.0139 54.675C60.5362 54.675 59.5511 55.2661 58.5659 56.2512C57.6793 57.3349 57.2853 58.5171 57.2853 59.9947ZM69.1068 109.054C68.1217 110.729 66.9395 112.207 65.9544 112.896C64.9693 113.783 63.7871 114.177 62.5064 114.177C61.0287 114.177 59.7481 113.783 58.7629 112.601C57.7778 111.616 57.2853 110.335 57.2853 108.857C57.2853 107.971 57.3838 107.281 57.6793 106.394C57.9748 105.705 58.2704 104.818 58.6644 104.129L89.499 49.6509C90.6812 47.7791 91.6663 46.4985 92.6514 45.6118C93.6366 44.9223 94.8187 44.4297 96.0994 44.4297C97.6756 44.4297 98.9563 44.8237 99.9414 45.9074C100.927 46.8925 101.518 48.0747 101.518 49.4539C101.518 50.1434 101.419 50.9315 101.124 51.6211C100.828 52.5078 100.434 53.2959 99.9414 54.1825L69.1068 109.054ZM82.7016 98.6118C82.7016 94.4743 84.1793 90.9278 86.8392 88.071C89.499 85.2141 92.947 83.7364 96.986 83.7364C101.025 83.7364 104.276 85.2141 107.133 88.071C109.99 90.9278 111.27 94.4743 111.27 98.6118C111.27 102.749 109.793 106.197 107.133 109.153C104.276 112.01 101.025 113.487 96.986 113.487C92.947 113.487 89.5975 112.01 86.8392 109.153C83.9823 106.394 82.7016 102.749 82.7016 98.6118ZM92.2574 98.6118C92.2574 100.09 92.6514 101.37 93.7351 102.355C94.7202 103.34 95.9024 103.932 97.183 103.932C98.4637 103.932 99.6458 103.34 100.631 102.355C101.616 101.37 102.109 100.09 102.109 98.6118C102.109 97.0356 101.715 95.8535 100.631 94.7698C99.6458 93.7847 98.6607 93.1936 97.183 93.1936C95.9024 93.1936 94.7202 93.7847 93.7351 94.7698C92.7499 95.755 92.2574 97.0356 92.2574 98.6118Z" fill="white"/>
</svg>
