<svg width="70" height="70" viewBox="0 0 70 70" fill="none" xmlns="http://www.w3.org/2000/svg">
<path d="M12.6875 53.8133L13.0594 53.2948L30.6031 20.0142L30.6403 19.662L22.9075 5.137C22.7659 4.87139 22.5444 4.65702 22.2743 4.52421C22.0042 4.3914 21.6992 4.34688 21.4024 4.39695C21.1056 4.44702 20.8321 4.58914 20.6205 4.80321C20.4089 5.01728 20.27 5.29246 20.2234 5.58982L12.6875 53.8133Z" fill="#FFC24A"/>
<path d="M12.9062 53.4187L13.1862 52.8718L30.5484 19.9368L22.8353 5.35491C22.7081 5.10132 22.5022 4.89577 22.2483 4.76906C21.9945 4.64234 21.7065 4.60128 21.4273 4.65203C21.1482 4.70278 20.893 4.84261 20.7001 5.05056C20.5071 5.25852 20.3867 5.5234 20.3569 5.80554L12.9062 53.4187Z" fill="#FFA712"/>
<path d="M36.2775 30.6465L42.035 24.7402L36.2753 13.7568C36.1485 13.5204 35.96 13.3228 35.7299 13.1851C35.4997 13.0474 35.2365 12.9746 34.9683 12.9746C34.7001 12.9746 34.4368 13.0474 34.2067 13.1851C33.9765 13.3228 33.788 13.5204 33.6612 13.7568L30.5834 19.6237V20.1246L36.2775 30.6465Z" fill="#F4BD62"/>
<path d="M36.1747 30.4053L41.7725 24.6741L36.1747 13.9991C36.0831 13.768 35.9266 13.5684 35.724 13.4242C35.5215 13.2801 35.2816 13.1976 35.0333 13.1868C34.785 13.1759 34.5388 13.2371 34.3245 13.363C34.1101 13.4889 33.9368 13.6741 33.8253 13.8963L30.7322 19.866L30.6403 20.17L36.1747 30.4053Z" fill="#FFA50E"/>
<path d="M12.6919 53.8152L12.8603 53.6446L13.4706 53.3974L35.9144 31.0368L36.1987 30.2624L30.6009 19.5918L12.6919 53.8152Z" fill="#F6820C"/>
<path d="M36.995 65.0907L57.3125 53.7617L51.5069 18.0376C51.4653 17.7858 51.3551 17.5503 51.1884 17.357C51.0217 17.1636 50.805 17.02 50.562 16.9418C50.319 16.8636 50.0592 16.8539 49.811 16.9136C49.5629 16.9734 49.336 17.1004 49.1553 17.2807L12.6875 53.812L32.8847 65.0885C33.5126 65.4389 34.2197 65.6229 34.9387 65.6229C35.6578 65.6229 36.3649 65.4389 36.9928 65.0885" fill="#FDE068"/>
<path d="M57.1266 53.6689L51.3691 18.2139C51.3589 17.9731 51.2775 17.7406 51.1352 17.546C50.9929 17.3514 50.796 17.2034 50.5695 17.1208C50.3431 17.0381 50.0971 17.0245 49.8629 17.0816C49.6287 17.1387 49.4167 17.2641 49.2538 17.4417L12.9062 53.7455L32.8803 64.9018C33.5032 65.2493 34.2047 65.4317 34.918 65.4317C35.6313 65.4317 36.3327 65.2493 36.9556 64.9018L57.1266 53.6689Z" fill="#FCCA3F"/>
<path d="M36.995 64.7491C36.3671 65.0995 35.66 65.2835 34.9409 65.2835C34.2219 65.2835 33.5148 65.0995 32.8869 64.7491L12.8537 53.641L12.6875 53.8116L32.8847 65.0882C33.5126 65.4386 34.2197 65.6225 34.9387 65.6225C35.6578 65.6225 36.3649 65.4386 36.9928 65.0882L57.3125 53.7613L57.2622 53.4551L36.995 64.7491Z" fill="#EEAB37"/>
</svg>
