<svg width="70" height="70" viewBox="0 0 70 70" fill="none" xmlns="http://www.w3.org/2000/svg">
<path fill-rule="evenodd" clip-rule="evenodd" d="M46.7546 37.4851L48.7491 20.1313C48.7491 20.1313 46.8598 21.6468 34.8337 21.6468C22.8066 21.6468 21.1122 20.1627 21.1122 20.1627L22.6924 34.9153C23.5387 32.5828 25.5558 27.8378 28.739 27.997C30.1854 28.0685 32.114 30.7651 30.4609 30.8566C29.7623 30.8947 29.6934 29.5107 28.8669 29.3076C28.2696 29.1608 27.4372 29.6317 26.8989 30.1417C25.8264 31.1587 23.519 35.1707 23.824 37.1715C24.2137 39.7213 27.4578 36.285 28.0059 35.2651C28.3936 34.5464 28.6553 32.4169 29.5015 32.64C30.3458 32.863 29.4268 35.0611 28.8128 37.0037C28.124 39.1865 27.7629 41.4913 26.8999 41.2263C26.037 40.9594 27.4411 38.1456 27.3919 37.6519C26.5801 38.3763 25.0825 40.216 23.1677 39.3009L24.1812 48.7699C24.1812 48.7699 26.8212 50.7907 34.7737 50.7907C42.7242 50.7907 45.4646 48.8023 45.4646 48.8023L46.5893 39.0178C45.4872 39.9805 42.4762 41.5152 42.2775 39.666C42.1141 38.1361 45.7371 35.918 44.8063 35.8437C42.8059 35.958 41.8091 38.1189 40.8015 40.3809C40.4335 41.2101 39.1711 44.7503 38.3416 44.3147C37.515 43.8781 39.4161 40.969 39.9484 39.2437C39.3334 39.6784 37.0782 41.375 36.4976 39.787C35.5628 40.5543 33.5654 40.9709 33.7917 38.952C33.2958 39.8061 32.178 40.9966 30.8398 40.5019C29.0824 39.8518 31.8601 34.4253 32.5519 34.6989C33.2407 34.9724 32.4112 36.2087 32.1937 36.6891C31.7155 37.7453 31.1635 39.074 31.5344 39.3457C32.1642 39.8109 33.8861 37.5823 33.9225 37.5346C34.2443 37.1228 35.1624 34.4272 35.9003 34.738C36.6383 35.0468 34.0574 38.6041 35.0226 39.3104C35.2194 39.4534 36.0145 39.2227 36.4986 38.7147C36.8135 38.3868 36.7052 37.6595 37.7482 35.2451C38.7952 32.8306 39.726 29.8243 40.4443 30.053C41.1597 30.2818 40.5693 31.826 40.3125 32.4007C39.1081 35.1021 37.0211 39.563 38.0051 39.2256C38.989 38.8872 39.5007 38.8681 40.465 37.7767C41.4293 36.6834 41.384 34.8838 42.0266 34.9229C42.6701 34.961 42.5618 35.5367 42.4064 35.9762C43.0381 35.2765 45.4026 33.8 45.9733 35.2613C46.6522 36.9923 42.5924 39.4915 43.6049 39.3648C44.5446 39.2447 46.0432 38.3487 46.7733 37.4927L46.7546 37.4851ZM38.5187 17.3327C37.395 17.2926 36.2162 17.2717 35.002 17.2717C27.2679 17.2717 21 18.1257 21 19.1781C21 20.2304 27.2679 21.0844 35 21.0844C42.7321 21.0844 49 20.2304 49 19.1781C49 18.4155 45.7106 17.7578 40.959 17.4528L41.9282 13.742L48.8622 6.67409L48.8298 6.6474C48.8495 6.63501 48.8711 6.6188 48.8888 6.59974C49.0659 6.40434 48.8003 5.90582 48.2984 5.48451C47.7966 5.0651 47.2485 4.884 47.0744 5.07749C47.0507 5.10323 47.035 5.13468 47.0271 5.16805L39.6896 12.6964L38.5148 17.3327H38.5187ZM42.6042 62.1842C42.6042 63.1869 39.1898 64 34.9784 64C30.7669 64 27.3525 63.1869 27.3525 62.1842L26.6992 52.8295L24.8513 49.8575C24.8513 49.8575 28.5432 51.3159 34.8189 51.3159C41.0967 51.3159 44.8457 49.8289 44.8457 49.8289L43.1985 52.555L42.6022 62.1842H42.6042ZM40.2898 19.6966C40.526 19.6661 40.8901 19.6232 40.8901 19.3468C40.8901 19.1847 40.7484 19.0894 40.587 19.0418L40.467 19.2229C40.5654 19.2467 40.6244 19.2762 40.6244 19.3067C40.6224 19.4097 39.8667 19.4593 39.2429 19.4669C38.6191 19.4745 37.8024 19.403 37.8033 19.2991C37.8033 19.2772 37.8329 19.2562 37.887 19.2391L37.766 19.0551C37.638 19.1104 37.5377 19.1885 37.5377 19.3277C37.5377 19.4002 37.5701 19.506 37.6311 19.5593C37.8575 19.7595 38.4232 19.7662 39.2213 19.7624C40.0183 19.7595 40.2908 19.7004 40.2908 19.7004L40.2898 19.6966Z" fill="#FA383E"/>
</svg>
