<svg width="70" height="70" viewBox="0 0 70 70" fill="none" xmlns="http://www.w3.org/2000/svg">
<path d="M64 2L58.625 62.2142L34.4639 68.9123L10.3695 62.2234L5 2H64Z" fill="#E44D26"/>
<path d="M34.5 63.7922L54.0234 58.3797L58.6164 6.92383H34.5V63.7922Z" fill="#F16529"/>
<path d="M24.0511 21.6967H34.5V14.3105H15.979L16.1557 16.2921L17.9712 36.6464H34.5V29.2603H24.7262L24.0511 21.6967ZM25.7158 40.3396H18.3012L19.3359 51.937L34.466 56.1369L34.5 56.1277V48.4429L34.4676 48.4515L26.2417 46.2304L25.7158 40.3396Z" fill="#EBEBEB"/>
<path d="M34.4745 36.6464H43.5698L42.7122 46.2257L34.4743 48.4492V56.1335L49.6164 51.937L49.7274 50.6891L51.4634 31.2436L51.6435 29.2603H34.4745V36.6464ZM34.4745 21.6787V21.6967H52.3156L52.4636 20.0366L52.8004 16.2921L52.9768 14.3105H34.4745V21.6787Z" fill="white"/>
</svg>
