<svg width="70" height="70" viewBox="0 0 70 70" fill="none" xmlns="http://www.w3.org/2000/svg">
<path fill-rule="evenodd" clip-rule="evenodd" d="M68.4678 12.0012C67.3933 12.0367 67.7042 12.5208 65.378 13.0955C63.0282 13.6741 60.1863 13.3198 57.6594 14.3825C51.0468 17.1535 49.9762 27.8675 42.1001 32.0122C36.936 34.9288 31.6696 35.5979 26.962 37.074C23.1834 38.5893 20.8336 39.593 18.0626 41.9822C15.9135 43.8361 15.39 45.6349 13.1425 47.9611C10.8635 51.0588 2.22388 48.3075 0 52.1924C1.17295 52.952 1.84992 53.1606 3.90848 52.889C3.48339 53.6959 0.775393 54.7587 1.2674 55.9474C1.2674 55.9474 7.81308 57.14 13.3314 53.8101C15.9056 52.7631 18.3184 50.5471 22.3175 50.0157C27.4973 49.3269 33.3345 51.1021 39.5968 51.602C38.3018 54.1604 36.9675 55.6718 35.5387 57.7816C35.0979 58.2578 35.9166 58.679 37.4359 58.3917C40.1675 57.7147 42.1474 56.9826 44.1114 55.6246C46.6738 53.8573 47.7759 52.2396 49.9368 49.6772C51.8143 52.6883 58.4348 53.3496 59.7928 50.7478C57.2658 49.6772 56.7265 44.1077 57.5925 41.7028C58.6158 39.412 59.3519 36.1726 60.1785 33.1615C60.9224 30.4496 61.3829 26.3128 62.2724 24.1952C63.3352 21.5619 65.4016 20.7393 66.9524 19.342C68.5032 17.9447 70.0462 16.7796 69.9989 13.5835C69.9832 12.5444 69.4479 11.9697 68.4678 12.0012Z" fill="#1F305F"/>
<path d="M1.97571 55.3951C6.03379 55.5171 7.1359 55.4108 10.3438 54.0174C13.0715 52.8327 16.7202 49.6405 19.9438 48.6093C24.675 47.09 29.7486 47.3182 34.7828 47.9126C36.4674 48.1133 38.1599 48.3928 39.3683 48.2629C41.2537 47.1057 41.3442 43.9647 42.5132 43.7128C42.1944 49.7901 39.5887 53.6789 36.983 57.2056C42.4738 56.2374 46.1423 52.8091 48.3622 48.566C49.0353 47.2789 50.1531 45.1731 50.6648 43.7246C51.0702 44.685 50.1374 45.2951 50.5743 46.3421C54.1089 43.4255 55.7777 40.1034 57.2105 35.2385C58.8715 29.6099 60.5758 24.7725 61.6464 23.1075C62.6895 21.4819 64.315 20.4782 65.7989 19.4391C67.4836 18.2544 68.9911 17.0224 69.2509 14.767C67.4718 14.6017 67.0624 14.1923 66.7987 13.2949C65.9092 13.7948 65.0905 13.905 64.1655 13.9326C63.3626 13.9562 62.4809 13.9208 61.4024 14.031C52.4951 14.9441 52.0818 23.6507 45.607 30.0429C45.1897 30.4483 44.4773 31.0466 44.005 31.4008C42.0054 32.8926 39.8642 33.7113 37.6089 34.5733C33.9562 35.9666 30.4925 36.3721 27.0681 37.5765C24.553 38.4582 22.2149 39.4697 20.1485 40.8828C19.6329 41.237 18.9323 41.8668 18.4835 42.2329C17.2712 43.2247 16.4762 44.3229 15.7047 45.4565C14.9096 46.6216 14.146 47.8221 12.977 48.9675C11.0837 50.8253 4.01458 49.5106 1.52306 51.2346C1.24753 51.4275 1.02317 51.6558 0.873596 51.9313C2.23154 52.5493 3.14076 52.1714 4.70338 52.3407C4.89625 53.8324 1.46796 54.7141 1.97571 55.3951Z" fill="#C0765A"/>
<path fill-rule="evenodd" clip-rule="evenodd" d="M58.4348 17.7208C59.6941 18.8148 62.3386 17.9372 61.8664 15.761C59.9066 15.5958 58.7732 16.2608 58.4348 17.7208Z" fill="#1F305F"/>
<path d="M67.2238 15.1657C66.8893 15.8701 66.2478 16.7752 66.2478 18.5658C66.2438 18.8727 66.0156 19.0852 66.0117 18.609C66.0274 16.8578 66.4918 16.1023 66.9837 15.1106C67.208 14.7052 67.3457 14.8705 67.2238 15.1657Z" fill="#1F305F"/>
<path d="M66.8852 14.9062C66.4878 15.5752 65.5354 16.799 65.382 18.5857C65.3544 18.8926 65.1026 19.0815 65.1419 18.6093C65.3151 16.8699 66.0746 15.7798 66.6531 14.8314C66.9128 14.4457 67.0348 14.6228 66.8852 14.9062Z" fill="#1F305F"/>
<path d="M66.578 14.5534C66.1255 15.187 64.6615 16.6588 64.3546 18.4218C64.2995 18.7248 64.0358 18.8901 64.1145 18.4257C64.4333 16.706 65.6965 15.3522 66.3497 14.4589C66.641 14.093 66.7512 14.2818 66.578 14.5534Z" fill="#1F305F"/>
<path d="M66.3024 14.1645C65.7672 14.7312 64.02 16.6044 63.469 18.3084C63.3706 18.5996 63.0873 18.7294 63.229 18.2769C63.7839 16.6162 65.3147 14.8296 66.0899 14.0386C66.4323 13.7198 66.511 13.9245 66.3024 14.1645Z" fill="#1F305F"/>
</svg>
