<svg width="80" height="80" viewBox="0 0 80 80" fill="none" xmlns="http://www.w3.org/2000/svg">
<rect width="80" height="80" rx="10" fill="white"/>
<path d="M62.0056 24.0081C58.2453 24.0081 39.7767 25.4418 35.0221 25.7645C30.2676 26.0875 27.0059 28.1965 25.9113 31.7567L25.8925 31.8178L28.6693 33.5242V33.5309C29.0721 33.814 29.3992 34.1919 29.6216 34.6312C29.844 35.0706 29.9549 35.5578 29.9446 36.0502C29.9343 36.5425 29.8031 37.0247 29.5625 37.4543C29.3219 37.8839 28.9793 38.2478 28.565 38.5138L28.3786 38.6192L23.0442 41.5999C22.1106 44.6004 21.4291 47.6737 21.0067 50.7876C21.0085 52.2772 21.5988 53.7057 22.6491 54.7621C23.6994 55.8184 25.1245 56.4169 26.6141 56.4273H58.1536C60.0243 56.4069 61.8268 55.7221 63.2391 54.4952C64.6515 53.2682 65.5815 51.5791 65.8632 49.7296C66.428 46.4518 68.6666 32.5122 68.6666 29.2871C68.6666 26.0617 65.7685 24 62.0083 24" fill="#147EB5"/>
<path d="M52.5654 40.2206C52.5659 39.8748 52.4743 39.535 52.3 39.2362C52.1257 38.9375 51.875 38.6905 51.5736 38.5207L51.5548 38.5099H51.5467L41.8873 33.0693C41.6321 32.9247 41.3472 32.8407 41.0544 32.8236C40.7616 32.8065 40.4688 32.8568 40.1986 32.9706C39.9631 33.0688 39.7493 33.2125 39.5694 33.3934C39.3894 33.5743 39.2469 33.789 39.15 34.025C39.0529 34.261 39.0033 34.5138 39.004 34.769V45.679C39.0032 45.9342 39.0527 46.1871 39.1498 46.4231C39.2468 46.6592 39.3894 46.8738 39.5694 47.0546C39.7493 47.2355 39.9631 47.3793 40.1986 47.4775C40.434 47.5758 40.6865 47.6268 40.9417 47.6275C41.2731 47.6277 41.5989 47.542 41.8873 47.3787L51.5467 41.9378H51.5548L51.5736 41.9271C51.875 41.7574 52.1257 41.5104 52.3 41.2117C52.4744 40.913 52.566 40.5732 52.5654 40.2274" fill="white"/>
<path d="M28.3625 35.99C28.3622 35.7486 28.2999 35.5114 28.1816 35.3011C28.0633 35.0907 27.893 34.9143 27.687 34.7886L21.3785 30.9113C21.1593 30.7754 20.9067 30.7034 20.6489 30.7031C20.4643 30.7036 20.2817 30.7405 20.1114 30.8116C19.9411 30.8827 19.7865 30.9866 19.6563 31.1175C19.5262 31.2484 19.4232 31.4036 19.353 31.5743C19.2829 31.745 19.2471 31.9278 19.2477 32.1124V39.5141C19.247 39.6987 19.2827 39.8817 19.3527 40.0525C19.4228 40.2233 19.5258 40.3787 19.6559 40.5097C19.7861 40.6406 19.9407 40.7447 20.1111 40.8159C20.2815 40.887 20.4642 40.9239 20.6489 40.9244C20.8856 40.9235 21.1181 40.8621 21.3244 40.7461L27.6165 37.233H27.6329C27.8519 37.1104 28.0343 36.9315 28.1611 36.7149C28.2879 36.4983 28.3547 36.2517 28.3545 36.0007L28.3625 35.99ZM17.6749 43.3914C17.6745 43.2058 17.6251 43.0235 17.5316 42.8631C17.4382 42.7027 17.304 42.5698 17.1427 42.4779L12.2367 39.6581C12.0794 39.5655 11.9004 39.5161 11.7179 39.515C11.4384 39.5157 11.1707 39.6274 10.9735 39.8255C10.7764 40.0236 10.666 40.2919 10.6667 40.5714V46.2112C10.666 46.4198 10.7272 46.6239 10.8425 46.7978C10.9578 46.9716 11.122 47.1073 11.3144 47.1878C11.4423 47.2412 11.5793 47.2688 11.7179 47.2692C11.9009 47.2682 12.0804 47.2187 12.2381 47.1259L17.144 44.3061C17.3055 44.2141 17.4398 44.0811 17.5333 43.9204C17.6268 43.7598 17.6761 43.5773 17.6763 43.3914" fill="#147EB5"/>
</svg>
