<svg width="120" height="120" viewBox="0 0 120 120" fill="none" xmlns="http://www.w3.org/2000/svg">
<g filter="url(#filter0_dd_1656_17)">
<path d="M87.0335 40.0097C82.5363 40.0097 60.4484 41.734 54.7621 42.1222C49.0757 42.5106 45.1749 45.0471 43.8658 49.329L43.8433 49.4024L47.1642 51.4547V51.4627C47.646 51.8033 48.0371 52.2577 48.3031 52.7861C48.5691 53.3145 48.7018 53.9005 48.6895 54.4926C48.6772 55.0847 48.5202 55.6647 48.2325 56.1814C47.9447 56.6981 47.535 57.1357 47.0395 57.4557L46.8165 57.5824L40.4368 61.1672C39.3202 64.776 38.5051 68.4722 38 72.2173C38.0022 74.0088 38.7082 75.7269 39.9643 76.9973C41.2204 78.2677 42.9248 78.9875 44.7062 79H82.4266C84.664 78.9755 86.8198 78.1519 88.5088 76.6763C90.1979 75.2007 91.3103 73.1692 91.6472 70.9448C92.3226 67.0026 95 50.2375 95 46.3587C95 42.4796 91.534 40 87.0368 40" fill="#147EB5"/>
<path d="M76 59.4963C76.0005 59.0991 75.8924 58.7091 75.6868 58.3661C75.4811 58.0231 75.1854 57.7395 74.8298 57.5446L74.8076 57.5322H74.7981L63.4018 51.2858C63.1007 51.1199 62.7645 51.0234 62.4191 51.0037C62.0737 50.9841 61.7283 51.0418 61.4094 51.1725C61.1316 51.2853 60.8793 51.4503 60.6671 51.658C60.4548 51.8657 60.2867 52.1121 60.1723 52.3831C60.0577 52.654 59.9992 52.9442 60 53.2372V65.763C59.9991 66.056 60.0575 66.3463 60.172 66.6173C60.2865 66.8883 60.4547 67.1347 60.6671 67.3423C60.8794 67.55 61.1316 67.715 61.4094 67.8279C61.6872 67.9407 61.9851 67.9992 62.2861 68C62.6771 68.0003 63.0615 67.9019 63.4018 67.7144L74.7981 61.4677H74.8076L74.8298 61.4554C75.1854 61.2605 75.4812 60.9771 75.6869 60.6341C75.8925 60.2911 76.0006 59.9011 76 59.504" fill="white"/>
<path d="M47 54.3827C46.9996 54.0913 46.9257 53.805 46.7853 53.551C46.6449 53.2971 46.4428 53.0841 46.1983 52.9324L38.7119 48.2513C38.4518 48.0873 38.152 48.0003 37.846 48C37.627 48.0006 37.4103 48.0451 37.2082 48.1309C37.0061 48.2168 36.8226 48.3423 36.6682 48.5003C36.5138 48.6582 36.3915 48.8456 36.3083 49.0517C36.2251 49.2578 36.1826 49.4786 36.1833 49.7013V58.6373C36.1824 58.8602 36.2248 59.0811 36.3079 59.2873C36.391 59.4936 36.5133 59.6811 36.6677 59.8393C36.8222 59.9974 37.0057 60.123 37.2079 60.2089C37.4101 60.2949 37.6269 60.3394 37.846 60.34C38.1269 60.3389 38.4029 60.2648 38.6478 60.1247L46.1147 55.8834H46.1341C46.3941 55.7353 46.6104 55.5194 46.761 55.2579C46.9115 54.9964 46.9907 54.6988 46.9904 54.3957L47 54.3827ZM34.3169 63.3184C34.3164 63.0942 34.2577 62.8742 34.1468 62.6805C34.0359 62.4869 33.8766 62.3264 33.6852 62.2155L27.8632 58.8111C27.6766 58.6994 27.4642 58.6398 27.2476 58.6384C26.9159 58.6392 26.5981 58.7741 26.3642 59.0133C26.1302 59.2524 25.9992 59.5764 26 59.9138V66.7227C25.9992 66.9745 26.0718 67.2209 26.2086 67.4308C26.3454 67.6406 26.5404 67.8045 26.7687 67.9017C26.9204 67.9662 27.0831 67.9995 27.2476 68C27.4647 67.9987 27.6777 67.939 27.8648 67.827L33.6868 64.4226C33.8785 64.3116 34.0378 64.151 34.1488 63.957C34.2597 63.7631 34.3182 63.5428 34.3184 63.3184" fill="#147EB5"/>
</g>
<defs>
<filter id="filter0_dd_1656_17" x="-4" y="0" width="128" height="128" filterUnits="userSpaceOnUse" color-interpolation-filters="sRGB">
<feFlood flood-opacity="0" result="BackgroundImageFix"/>
<feColorMatrix in="SourceAlpha" type="matrix" values="0 0 0 0 0 0 0 0 0 0 0 0 0 0 0 0 0 0 127 0" result="hardAlpha"/>
<feOffset dy="4"/>
<feGaussianBlur stdDeviation="2"/>
<feComposite in2="hardAlpha" operator="out"/>
<feColorMatrix type="matrix" values="0 0 0 0 0 0 0 0 0 0 0 0 0 0 0 0 0 0 0.25 0"/>
<feBlend mode="normal" in2="BackgroundImageFix" result="effect1_dropShadow_1656_17"/>
<feColorMatrix in="SourceAlpha" type="matrix" values="0 0 0 0 0 0 0 0 0 0 0 0 0 0 0 0 0 0 127 0" result="hardAlpha"/>
<feOffset dy="4"/>
<feGaussianBlur stdDeviation="2"/>
<feComposite in2="hardAlpha" operator="out"/>
<feColorMatrix type="matrix" values="0 0 0 0 0 0 0 0 0 0 0 0 0 0 0 0 0 0 0.25 0"/>
<feBlend mode="normal" in2="effect1_dropShadow_1656_17" result="effect2_dropShadow_1656_17"/>
<feBlend mode="normal" in="SourceGraphic" in2="effect2_dropShadow_1656_17" result="shape"/>
</filter>
</defs>
</svg>
