<svg width="70" height="70" viewBox="0 0 70 70" fill="none" xmlns="http://www.w3.org/2000/svg">
<path fill-rule="evenodd" clip-rule="evenodd" d="M6.75822 48L6.69996 39.1045C6.69996 39.1045 10.4286 39.1045 12.6425 39.0184C13.4163 38.9883 14.5943 38.674 14.5943 38.674L18.8181 25.7037C18.8181 25.7037 17.5758 23.8891 15.5556 22.8629C13.6912 21.9159 10.9238 22.002 10.9238 22.002H0V48H6.75822ZM6.72909 27.0811V33.9967H10.1082C10.1082 33.9967 11.3892 33.8676 12.0308 33.4228C13.0717 32.7011 13.3991 31.7494 13.3708 30.4959C13.342 29.2231 12.9341 28.2996 11.856 27.5976C11.0686 27.0849 9.49646 27.0811 9.49646 27.0811H6.72909Z" fill="#3D3D3D"/>
<path d="M25.4307 38.7314L21.5273 31.0985L17.9442 41.8305L21.5564 48H28.5185L33.5289 33.0497L38.2772 47.9426H45.2684L55.901 22.002H48.7932L41.5689 38.674L36.4419 22.0307H30.9363L25.4307 38.7314Z" fill="#5A0FC8"/>
<path d="M60.8822 43.3514L62.6009 48H70L60.0083 22.002L56.5418 30.6106L59.2801 38.2436H53.5123L51.3858 43.3801L60.8822 43.3514Z" fill="#3D3D3D"/>
</svg>
