<svg width="70" height="70" viewBox="0 0 70 70" fill="none" xmlns="http://www.w3.org/2000/svg">
<path d="M5 48.7206V22.6036C5 22.6036 5.00694 19.6561 5.88159 18.0854C6.78578 16.4617 9.40794 14.8898 9.40794 14.8898L31.668 1.66583C31.668 1.66583 33.5912 0.935343 34.8638 1.00464C36.1276 1.07345 37.9494 1.99642 37.9494 1.99642L60.3197 15.3304C60.3197 15.3304 61.7002 16.569 62.5236 17.4242C64.2069 19.1724 63.6207 25.0345 63.6207 25.0345L36.1862 68.5563C36.1862 68.5563 34.9273 68.9618 34.0924 68.9971C33.0463 69.0415 31.4476 68.5563 31.4476 68.5563L7.75496 54.5611C7.75496 54.5611 5.97338 52.8845 5.44079 51.4756C5.05554 50.4564 5 48.7206 5 48.7206Z" fill="white" stroke="#2E373B" stroke-width="2"/>
<path d="M41.8063 49.8227C41.8063 49.8227 39.6024 49.7125 38.9412 47.2881C38.7007 46.4066 39.0596 44.5349 40.0432 43.2108C40.5334 42.5508 41.5859 41.7782 41.5859 41.7782V39.464C41.5859 39.464 42.0833 38.9967 42.4675 38.8029C42.9056 38.5818 43.6797 38.4723 43.6797 38.4723V40.3456C43.6797 40.3456 44.4125 40.166 44.8919 40.1252C45.3207 40.0887 45.9939 40.1252 45.9939 40.1252V42.6598C45.9939 42.9354 45.7626 43.0319 45.5531 43.2108C45.4429 43.3049 43.9001 43.1349 43.4593 43.321C42.5045 43.724 41.9165 43.872 41.6961 45.3046C41.4448 46.9383 43.9001 46.8473 43.9001 46.8473C43.9001 46.8473 45.8837 47.1094 46.5449 48.499C46.8755 49.1938 46.7612 50.8825 46.2143 52.2457C45.9557 52.8902 45.7417 53.2287 45.3327 53.7899C44.92 54.356 44.1205 55.1122 44.1205 55.1122V57.4264C44.1205 57.4264 43.6772 58.0959 43.2389 58.308C42.6578 58.5892 41.5859 58.308 41.5859 58.308V56.655C41.5859 56.655 40.5772 57.1212 39.933 56.9856C39.6122 56.9181 39.1616 56.655 39.1616 56.655V53.6797C39.1616 53.6797 40.2392 53.8543 40.9247 53.7899C41.7567 53.7117 42.3575 53.75 43.0185 53.2389C43.8476 52.5979 44.3994 51.6257 43.9001 50.7043C43.4774 49.9243 41.8063 49.8227 41.8063 49.8227Z" fill="#F2F2F2"/>
<path d="M48.9692 54.0103C49.8508 53.4593 54.369 50.8145 54.5894 50.7043C54.8696 50.5642 55.1241 50.7194 55.3608 50.9247C55.7518 51.2639 55.6914 52.0879 55.471 52.2457C54.6996 52.7981 50.1814 55.6632 49.8508 55.8836C49.6304 56.0306 49.2194 55.8085 48.9692 55.4428C48.6533 54.9811 48.6386 54.2169 48.9692 54.0103Z" fill="#4D8659"/>
<path fill-rule="evenodd" clip-rule="evenodd" d="M33.872 65.139V39.9035C33.872 39.9035 33.7529 37.9433 34.2026 36.8179C34.669 35.6508 36.1862 34.2834 36.1862 34.2834L59.2177 20.068C59.2177 20.068 61.2013 19.0927 62.9645 20.0689C64.948 21.1672 64.7276 22.8242 64.7276 22.8242L64.8378 48.499C64.8378 48.499 64.8395 50.916 64.1766 52.2457C63.5914 53.4196 61.9726 54.7803 61.9726 54.7803L38.5003 68.8857C38.5003 68.8857 36.2259 69.1404 35.1944 68.3347C34.13 67.5033 33.872 65.139 33.872 65.139ZM38.9412 47.2881C39.6024 49.7125 41.8063 49.8227 41.8063 49.8227C41.8063 49.8227 43.4774 49.9243 43.9001 50.7043C44.3994 51.6257 43.8476 52.5979 43.0185 53.2389C42.3575 53.75 41.7567 53.7117 40.9247 53.7899C40.2392 53.8543 39.1616 53.6797 39.1616 53.6797V56.655C39.1616 56.655 39.6122 56.9181 39.933 56.9856C40.5772 57.1212 41.5859 56.655 41.5859 56.655V58.308C41.5859 58.308 42.6578 58.5892 43.2389 58.308C43.6772 58.0959 44.1205 57.4264 44.1205 57.4264V55.1122C44.1205 55.1122 44.92 54.356 45.3327 53.7899C45.7417 53.2287 45.9557 52.8902 46.2143 52.2457C46.7612 50.8825 46.8755 49.1938 46.5449 48.499C45.8837 47.1094 43.9001 46.8473 43.9001 46.8473C43.9001 46.8473 41.4448 46.9383 41.6961 45.3046C41.9165 43.872 42.5045 43.724 43.4593 43.321C43.9001 43.1349 45.4429 43.3049 45.5531 43.2108C45.7626 43.0319 45.9939 42.9354 45.9939 42.6598V40.1252C45.9939 40.1252 45.3207 40.0887 44.8919 40.1252C44.4125 40.166 43.6797 40.3456 43.6797 40.3456V38.4723C43.6797 38.4723 42.9056 38.5818 42.4675 38.8029C42.0833 38.9967 41.5859 39.464 41.5859 39.464V41.7782C41.5859 41.7782 40.5334 42.5508 40.0432 43.2108C39.0596 44.5349 38.7007 46.4066 38.9412 47.2881ZM54.5894 50.7043C54.369 50.8145 49.8508 53.4593 48.9692 54.0103C48.6386 54.2169 48.6533 54.9811 48.9692 55.4428C49.2194 55.8085 49.6304 56.0306 49.8508 55.8836C50.1814 55.6632 54.6996 52.7981 55.471 52.2457C55.6914 52.0879 55.7518 51.2639 55.3608 50.9247C55.1241 50.7194 54.8696 50.5642 54.5894 50.7043Z" fill="#2E373B"/>
</svg>
