<svg width="80" height="80" viewBox="0 0 80 80" fill="none" xmlns="http://www.w3.org/2000/svg">
<rect width="80" height="80" rx="10" fill="white"/>
<path d="M67.1506 32.667H64.4513L58.9352 46.7896H61.7324L62.8278 43.9142H68.5394L69.6543 46.7896H72.6666L67.1506 32.667ZM67.5418 41.3127H63.8449L65.7031 36.5008L67.5418 41.3127Z" fill="#005AF9"/>
<path d="M59.2678 39.0632C59.2678 37.7918 59.033 36.6573 58.544 35.7184C58.055 34.7599 57.3508 33.9971 56.4706 33.4689C55.5904 32.9408 54.5341 32.6865 53.3605 32.6865H48.3335V46.7896H53.3605C54.5341 46.7896 55.5904 46.5353 56.4706 46.0072C57.3704 45.479 58.055 44.7357 58.544 43.7577C59.0135 42.7992 59.2678 41.6843 59.2678 40.4129V39.0632ZM51.072 35.2294H53.3605C54.4168 35.2294 55.1992 35.5423 55.7273 36.1683C56.275 36.8138 56.5489 37.7918 56.5489 39.0632V40.4324C56.5489 41.7234 56.275 42.7014 55.7078 43.3274C55.1601 43.9533 54.3972 44.2663 53.3605 44.2663H51.072V35.2294Z" fill="#005AF9"/>
<path d="M28.8709 33.4493C28.0102 32.9408 26.9931 32.7061 25.8586 32.7061C24.7241 32.7061 23.707 32.9603 22.8463 33.4493C21.9661 33.9579 21.2815 34.6817 20.812 35.6206C20.3426 36.5399 20.1078 37.6548 20.1078 38.9067V40.5889C20.1078 41.8408 20.3426 42.9361 20.812 43.875C21.301 44.8139 21.9856 45.5572 22.8463 46.0462C23.707 46.5548 24.7241 46.7895 25.8586 46.7895C26.9931 46.7895 28.0102 46.5353 28.8709 46.0462C29.7511 45.5377 30.4357 44.8139 30.9052 43.875C31.3746 42.9557 31.6094 41.8408 31.6094 40.5889V38.9067C31.6094 37.6548 31.3746 36.5595 30.9052 35.6206C30.4162 34.6817 29.7316 33.9384 28.8709 33.4493ZM28.8709 38.9067V40.5889C28.8709 41.8212 28.5971 42.7405 28.0689 43.3469C27.5408 43.9337 26.8171 44.2271 25.839 44.2271C24.8415 44.2271 24.0982 43.9337 23.5896 43.3469C23.081 42.7405 22.8072 41.8016 22.8072 40.5889V38.9067C22.8072 37.694 23.081 36.7746 23.6092 36.1487C24.1373 35.5423 24.861 35.2489 25.839 35.2489C26.8366 35.2489 27.5799 35.5423 28.0885 36.1291C28.6166 36.7551 28.8709 37.694 28.8709 38.9067Z" fill="#005AF9"/>
<path d="M16.2545 38.9458C15.6481 38.7111 14.8657 38.4568 13.8877 38.2026C13.1639 38.0265 12.5967 37.8505 12.2055 37.7135C11.8534 37.5766 11.5404 37.4006 11.3057 37.1854C11.1101 37.0094 11.0319 36.7942 11.0319 36.5008C11.0319 36.1096 11.1883 35.8357 11.56 35.6206C11.9708 35.3663 12.5967 35.2489 13.3987 35.2489C14.1028 35.2489 14.6701 35.3859 15.0809 35.6597C15.4329 35.8944 15.609 36.227 15.609 36.6768V37.4006H18.3474V36.7355C18.3474 35.4445 17.878 34.4274 16.9587 33.7232C16.0589 33.0386 14.8461 32.6865 13.34 32.6865C11.8534 32.6865 10.6407 33.0191 9.72131 33.6645C8.78242 34.3492 8.29341 35.4054 8.29341 36.7942C8.29341 37.6549 8.52813 38.3786 8.99758 38.9263C9.44747 39.4544 9.99516 39.8456 10.6211 40.0804C11.1883 40.3151 11.9708 40.5498 12.9097 40.8041C13.653 40.9997 14.2398 41.1757 14.6701 41.3322C15.0417 41.4691 15.3743 41.6647 15.609 41.919C15.8242 42.1342 15.922 42.408 15.922 42.7601C15.922 43.21 15.7264 43.523 15.3156 43.7968C14.8461 44.0902 14.1811 44.2467 13.34 44.2467C12.4793 44.2467 11.7947 44.0902 11.3253 43.7773C10.9145 43.5034 10.7189 43.1122 10.7189 42.545L10.758 41.6843H8.01956L8 42.4863V42.5058C8 43.8946 8.48901 44.9705 9.44747 45.7137C10.3864 46.4179 11.6774 46.7896 13.3204 46.7896C14.9635 46.7896 16.2545 46.4375 17.1934 45.7333C18.1714 45.0096 18.6604 43.8555 18.6604 42.3102C18.6604 41.4105 18.4061 40.6867 17.9171 40.1195C17.4477 39.6109 16.9 39.2197 16.2545 38.9458Z" fill="#005AF9"/>
<path d="M43.0326 46.7896C41.4091 46.7896 40.0008 45.6746 39.6095 44.0902L37.6731 36.0314C37.5948 35.6597 37.2623 35.425 36.8906 35.425C36.4603 35.425 36.0887 35.7771 36.0887 36.227V45.4399C36.0887 46.1832 35.4823 46.8091 34.7194 46.8091C33.9762 46.8091 33.3502 46.2028 33.3502 45.4399V36.2074C33.3502 34.2709 34.9346 32.6865 36.8711 32.6865C38.4946 32.6865 39.903 33.8015 40.2942 35.3859L42.2306 43.4643C42.3089 43.8359 42.6414 44.0707 43.0131 44.0707C43.4434 44.0707 43.815 43.7186 43.815 43.2687V34.0558C43.815 33.3125 44.4214 32.6865 45.1843 32.6865C45.9471 32.6865 46.5535 33.2929 46.5535 34.0558V43.2687C46.5535 45.2052 44.9887 46.7896 43.0326 46.7896Z" fill="#005AF9"/>
</svg>
