<svg width="66" height="66" viewBox="0 0 66 66" fill="none" xmlns="http://www.w3.org/2000/svg">
<path d="M49.6071 33.0202V27.4301L52.0594 26.4426V29.3875H53.7001L53.3649 31.2215H52.0065V33.1084C52.0065 34.9424 52.6945 36.2297 53.4355 37.2525C53.8059 35.7183 54 34.1312 54 32.4912C54 21.1699 44.8262 12 33.5 12C24.3085 12 16.5284 18.0486 13.9174 26.3897H21.5387L21.2388 28.594H18.0809V37.4817H15.4699V28.594H13.3705C13.1235 29.8637 13 31.1686 13 32.5088C13 43.8301 22.1738 53 33.5 53C43.1149 53 51.1773 46.3871 53.4002 37.4641H50.9832C50.5598 36.7234 49.5895 35.3832 49.6071 33.0202ZM24.5379 37.4641H22.1033V29.2465H24.5379V37.4641ZM24.5379 28.1884H22.1033V26.3897H24.5379V28.1884ZM30.1657 35.6301C30.8008 35.6301 31.3124 35.4538 31.7005 35.2774L31.4888 37.2701C30.9948 37.517 30.2715 37.6404 29.6717 37.6404C27.0783 37.6404 25.2965 35.9652 25.2965 33.3376C25.2965 30.7454 27.0607 29.0877 29.654 29.0877C30.6067 29.0877 31.3477 29.2817 32.1063 29.6168L31.4182 31.4684C31.0654 31.2568 30.5538 31.0804 30.0245 31.0804C28.7014 31.0804 27.8369 31.9445 27.8369 33.3376C27.8193 34.7131 28.7367 35.6477 30.1657 35.6301ZM37.8576 37.4641C37.7341 37.1643 37.54 36.6882 37.3812 36.1944L37.0284 34.9776C36.8343 34.3428 36.5874 34.0606 35.9699 34.0606H34.929V37.4465H32.5297V26.3897H34.929V32.4912H35.1936L37.4695 29.2465H40.1334L37.4518 32.6323H37.5929C38.6515 32.6323 38.969 33.2318 39.2336 34.1136L39.6923 35.6301C39.8511 36.1944 40.1863 36.988 40.4333 37.4641H37.8576ZM49.0955 33.9548H42.8855C43.1149 35.3127 44.4028 35.8241 45.5142 35.8241C46.2199 35.8241 46.855 35.6654 47.4548 35.3832L47.2784 37.2348C46.5904 37.517 45.7612 37.6228 44.932 37.6228C42.1622 37.6228 40.2216 36.0004 40.2216 33.2671C40.2216 30.8865 41.9682 29.0877 44.6321 29.0877C47.6489 29.0877 49.1485 30.9923 49.0955 33.9548Z" fill="#F72717"/>
<path d="M37.8576 37.4641C37.7341 37.1643 37.54 36.6882 37.3812 36.1944L37.0284 34.9776C36.8343 34.3428 36.5874 34.0606 35.9699 34.0606H34.929V37.4465H32.5297V26.3897H34.929V32.4912H35.1936L37.4695 29.2465H40.1334L37.4518 32.6323H37.5929C38.6515 32.6323 38.969 33.2318 39.2336 34.1136L39.6923 35.6301C39.8511 36.1944 40.1863 36.988 40.4333 37.4641H37.8576Z" fill="white"/>
<path d="M30.1657 35.6301C30.8008 35.6301 31.3124 35.4538 31.7005 35.2774L31.4888 37.2701C30.9948 37.517 30.2715 37.6404 29.6717 37.6404C27.0783 37.6404 25.2965 35.9652 25.2965 33.3376C25.2965 30.7454 27.0607 29.0877 29.654 29.0877C30.6067 29.0877 31.3477 29.2817 32.1063 29.6168L31.4182 31.4684C31.0654 31.2568 30.5538 31.0804 30.0245 31.0804C28.7014 31.0804 27.8369 31.9445 27.8369 33.3376C27.8193 34.7131 28.7367 35.6477 30.1657 35.6301Z" fill="white"/>
<path d="M49.0955 33.9548H42.8855C43.1149 35.3127 44.4028 35.8241 45.5142 35.8241C46.2199 35.8241 46.855 35.6654 47.4548 35.3832L47.2784 37.2348C46.5904 37.517 45.7612 37.6228 44.932 37.6228C42.1622 37.6228 40.2216 36.0004 40.2216 33.2671C40.2216 30.8865 41.9682 29.0877 44.6321 29.0877C47.6489 29.0877 49.1485 30.9923 49.0955 33.9548Z" fill="white"/>
<path d="M24.5379 37.4641H22.1033V29.2465H24.5379V37.4641Z" fill="white"/>
<path d="M24.5379 28.1884H22.1033V26.3897H24.5379V28.1884Z" fill="white"/>
<path d="M49.6071 27.4301V33.0202C49.5895 35.3832 50.5598 36.7234 50.9832 37.4641H53.4002L53.4355 37.2525C52.6945 36.2297 52.0065 34.9424 52.0065 33.1084V31.2215H53.3649L53.7001 29.3875H52.0594V26.4426L49.6071 27.4301Z" fill="white"/>
<path d="M21.5387 26.3897H13.9174L13.6439 27.4918L13.3705 28.594H15.4699V37.4817H18.0809V28.594H21.2388L21.5387 26.3897Z" fill="white"/>
<path d="M44.7027 30.7812C43.6618 30.7812 43.0091 31.4514 42.7974 32.3507H46.4845C46.3787 31.3632 45.6907 30.7812 44.7027 30.7812Z" fill="#F72717"/>
</svg>
