<svg width="70" height="70" viewBox="0 0 70 70" fill="none" xmlns="http://www.w3.org/2000/svg">
<path d="M35.4939 68.3454C53.4398 68.3454 67.9879 53.4935 67.9879 35.1727C67.9879 16.8519 53.4398 2 35.4939 2C17.548 2 3 16.8519 3 35.1727C3 53.4935 17.548 68.3454 35.4939 68.3454Z" fill="#00969B"/>
<path d="M62.929 34.9544C62.929 27.3672 56.9265 21.2528 49.5231 21.2528C48.8431 21.2338 48.1623 21.2722 47.488 21.3675C41.6969 22.2729 37.8324 26.5766 35.6886 29.9748C33.5448 26.5766 29.686 22.2729 23.8834 21.3675C23.209 21.272 22.5285 21.2337 21.8483 21.2528C14.4565 21.2528 8.44812 27.3672 8.44812 34.9544C8.44812 42.5416 14.4565 48.6862 21.854 48.6862C22.533 48.695 23.2117 48.6466 23.8834 48.5413C29.6802 47.6359 33.5391 43.3323 35.6829 39.9401C37.8267 43.3323 41.6912 47.6359 47.4822 48.5413C48.1566 48.6367 48.8373 48.675 49.5174 48.656C56.812 48.5413 62.9232 42.4269 62.9232 34.9544H62.929ZM23.1402 43.6763C22.6805 43.7665 22.2127 43.8029 21.7453 43.785C16.9204 43.785 12.953 39.8254 12.953 34.9544C12.953 30.0834 16.9204 26.1238 21.854 26.1238C22.3216 26.105 22.7897 26.1435 23.2489 26.2385C28.7198 27.0292 32.0413 32.6909 33.116 34.9544C31.9327 37.2179 28.6112 42.771 23.1402 43.6763ZM38.1754 34.9544C39.3188 32.6909 42.5544 27.0292 48.0253 26.2385C48.4828 26.1434 48.9488 26.105 49.4147 26.1238C54.3483 26.1238 58.3156 30.0834 58.3156 34.9544C58.3156 39.8254 54.3483 43.785 49.5231 43.785C49.0558 43.8029 48.5882 43.7665 48.1283 43.6763C42.5544 42.771 39.2273 37.2179 38.1754 34.9544Z" fill="white"/>
<path d="M25.9598 33.5332H17.7877V36.4H25.9598V33.5332Z" fill="white"/>
<path d="M50.476 36.3232H53.2001V33.6092H50.476V30.666H47.7518V33.6092H45.028V36.3232H47.7518V39.2663H50.476V36.3232Z" fill="white"/>
</svg>
