<svg width="80" height="80" viewBox="0 0 80 80" fill="none" xmlns="http://www.w3.org/2000/svg">
<g clip-path="url(#clip0_898_967)">
<rect width="80" height="80" rx="10" fill="#191919"/>
<rect width="80" height="80" fill="#191919"/>
<path d="M21.8461 48.6161C21.8461 48.6161 21.8461 50.77 23.0769 52.3084C24.3077 53.8469 26.1538 54.1546 26.1538 54.1546H49.2308C49.2308 54.1546 54.1538 54.4623 54.1538 48.6161M54.1538 48.6161C54.1538 42.77 49.2308 43.0777 49.2308 43.0777H25.8461M54.1538 48.6161H25.8461V43.0777M54.1538 48.6161C54.1538 48.6161 58.4615 47.6931 58.4615 42.77C58.4615 37.8469 52.6154 37.2315 52.6154 37.2315M25.8461 43.0777V36.9238M25.8461 43.0777C25.8461 43.0777 21.5385 40.6161 21.5385 36.9238C21.5385 33.2315 25.8461 31.3854 25.8461 31.3854M52.6154 37.2315L25.8461 36.9238M52.6154 37.2315L54.1538 36.9238M25.8461 36.9238V31.3854M25.8461 31.3854V25.8469H52.6154C52.6154 25.8469 58.4615 25.8469 58.4615 31.3854C58.4615 34.461 55.6923 36.6161 54.1538 36.9238M25.8461 31.3854H49.2308C49.2308 31.3854 50.7692 31.3854 52.6154 33.2315C54.4615 35.0777 54.1538 36.9238 54.1538 36.9238M67.0769 40.0008C67.0769 4.03791 12.9231 3.75873 12.9231 40.0007C12.9231 76.2426 67.0769 75.9637 67.0769 40.0008Z" stroke="white" stroke-width="2"/>
</g>
<defs>
<clipPath id="clip0_898_967">
<rect width="80" height="80" rx="10" fill="white"/>
</clipPath>
</defs>
</svg>
