<svg width="120" height="120" viewBox="0 0 120 120" fill="none" xmlns="http://www.w3.org/2000/svg">
<rect x="19" y="19" width="82" height="82" rx="41" fill="#AA1920"/>
<g filter="url(#filter0_d_1651_92)">
<path d="M91.4146 46.0083L85.2727 52.156C84.668 52.7613 84.6684 53.7422 85.2737 54.3469C85.879 54.9516 86.8599 54.9512 87.4647 54.3459L93.6065 48.1982C94.2113 47.5929 94.2108 46.612 93.6055 46.0073C93.0002 45.4025 92.0193 45.403 91.4146 46.0083Z" fill="white"/>
</g>
<g filter="url(#filter1_d_1651_92)">
<path d="M80.53 50.5783V44.7225C80.53 43.8704 79.8392 43.1797 78.9872 43.1797C78.1351 43.1797 77.4443 43.8704 77.4443 44.7225V50.5783C77.4443 51.4303 78.1351 52.1211 78.9872 52.1211C79.8392 52.1211 80.53 51.4303 80.53 50.5783Z" fill="white"/>
</g>
<g filter="url(#filter2_d_1651_92)">
<path d="M81.2573 64.88C80.9102 65.2367 80.4952 65.5202 80.0368 65.7138C79.5783 65.9074 79.0857 66.0071 78.588 66.0071C78.0904 66.0071 77.5978 65.9074 77.1393 65.7138C76.6809 65.5202 76.2658 65.2367 75.9188 64.88C75.5623 64.5279 75.2788 64.1089 75.0847 63.6469C74.8907 63.1849 74.7898 62.6891 74.788 62.1881C74.7799 61.6807 74.8762 61.1771 75.0707 60.7084C75.2652 60.2397 75.5539 59.816 75.9188 59.4634C76.2538 59.0976 76.665 58.8098 77.1234 58.6204C77.5818 58.4309 78.0762 58.3445 78.5717 58.367C79.0768 58.3441 79.581 58.4302 80.0499 58.6193C80.5188 58.8085 80.9415 59.0964 81.2893 59.4634C81.9986 60.1883 82.3931 61.1639 82.3871 62.178C82.3811 63.1922 81.9751 64.163 81.2573 64.8794M78.5746 54.9105C77.6323 54.8958 76.6971 55.0774 75.8288 55.4439C74.9605 55.8104 74.1781 56.3536 73.5312 57.0391C72.8442 57.7067 72.3013 58.5079 71.9358 59.3933C71.5703 60.2788 71.39 61.2297 71.4061 62.1875C71.3874 63.1408 71.5665 64.0876 71.9323 64.9681C72.2981 65.8486 72.8425 66.6437 73.5312 67.3032C74.1764 67.9928 74.9579 68.5407 75.8261 68.9122C76.6943 69.2837 77.6303 69.4705 78.5746 69.4609C80.4925 69.446 82.3264 68.6723 83.6754 67.3089C85.0244 65.9456 85.7787 64.1036 85.7734 62.1857C85.7882 61.2312 85.6106 60.2835 85.2515 59.399C84.8923 58.5145 84.3588 57.7114 83.6827 57.0374C83.0212 56.3533 82.2269 55.8116 81.3485 55.4456C80.4701 55.0795 79.5262 54.8968 78.5746 54.9087" fill="white"/>
</g>
<g filter="url(#filter3_d_1651_92)">
<path d="M33.1462 54.7798C34.1976 54.7795 35.2254 55.0913 36.0994 55.6756C36.6137 56.0345 37.0663 56.4705 37.4426 56.9662C37.8783 57.5401 38.5157 57.9681 39.2362 57.9681V57.9681C40.4694 57.9681 41.3674 56.7867 40.7437 55.7229C40.1817 54.7644 39.4409 53.9136 38.5541 53.2203C37.0305 51.9757 35.1137 51.3142 33.1468 51.3542C31.9743 51.315 30.8071 51.5291 29.7249 51.982C28.6427 52.4349 27.6709 53.1159 26.8758 53.9785C26.0275 54.7998 25.3573 55.7869 24.9069 56.8784C24.4565 57.9699 24.2356 59.1424 24.2579 60.323C24.2383 61.5086 24.4603 62.6858 24.9104 63.7829C25.3605 64.8799 26.0292 65.8739 26.8758 66.7041C27.6866 67.5443 28.662 68.2082 29.741 68.6543C30.82 69.1005 31.9794 69.3192 33.1468 69.297C35.1046 69.3174 37.0113 68.6719 38.5541 67.4664C39.4335 66.7716 40.1697 65.9235 40.7314 64.9698C41.3593 63.9036 40.4607 62.7158 39.2234 62.7158V62.7158C38.5094 62.7158 37.8758 63.1351 37.4441 63.7037C37.0654 64.2025 36.6126 64.6433 36.0994 65.01C35.216 65.5702 34.1923 65.8696 33.1462 65.8737C32.4222 65.8813 31.7042 65.7407 31.0366 65.4605C30.3689 65.1802 29.7657 64.7664 29.2639 64.2443C28.2429 63.1951 27.6716 61.789 27.6716 60.325C27.6716 58.861 28.2429 57.4548 29.2639 56.4057C29.7658 55.8839 30.3691 55.4702 31.0367 55.1901C31.7044 54.91 32.4222 54.7693 33.1462 54.7769" fill="white"/>
</g>
<g filter="url(#filter4_d_1651_92)">
<path d="M57.1697 63.7184C57.1697 64.9121 56.8378 65.7426 56.2092 66.2085C55.5825 66.6647 54.8265 66.9089 54.0514 66.9055C53.8888 66.911 53.7275 66.8955 53.5711 66.8602C53.0324 66.7386 52.5864 66.3183 52.4196 65.792V65.792C52.3356 65.5273 52.3084 65.2479 52.3396 64.9719C52.3708 64.696 52.4597 64.4297 52.6006 64.1904V64.1904C52.8809 63.7143 53.3985 63.4348 53.9289 63.28C53.9955 63.2606 54.0625 63.2427 54.1299 63.2263C54.5588 63.1219 54.9983 63.0626 55.4264 62.9551L56.4586 62.6961C56.4928 62.6875 56.5257 62.6747 56.5566 62.6577V62.6577C56.8333 62.5065 57.1709 62.707 57.1705 63.0223L57.1697 63.7184ZM59.0615 55.776C57.8242 55.1344 56.4414 54.8253 55.0486 54.879C52.7258 54.8452 51.0987 55.4774 50.1709 56.7061C49.8946 57.0989 49.6727 57.524 49.5092 57.97C49.1689 58.8977 49.9889 59.7317 50.977 59.7317H51.2452C52.0211 59.7317 52.6311 59.0707 53.1218 58.4697V58.4697C53.3475 58.2167 53.6322 58.0234 53.9507 57.9071V57.9071C54.5823 57.6765 55.2987 57.717 55.9518 57.8765C56.1891 57.9345 56.4197 58.0212 56.6384 58.1355C56.8355 58.2552 56.9956 58.4272 57.1009 58.6324C57.2062 58.8375 57.2526 59.0679 57.235 59.2978C57.229 59.5359 57.1493 59.7663 57.0068 59.9572V59.9572C56.7245 60.3353 56.2055 60.401 55.7397 60.4761L53.7831 60.7913C52.7401 60.9018 51.7271 61.2071 50.7966 61.6912C49.506 62.4563 48.875 63.6845 48.9089 65.4469C48.8707 65.9947 48.9549 66.544 49.1553 67.0552C49.3557 67.5664 49.6674 68.0266 50.0676 68.4025C50.869 69.0404 51.8667 69.381 52.8908 69.3665C54.3441 69.3405 55.5639 69.0585 56.5318 68.5057C56.8647 68.3155 57.333 68.5374 57.333 68.9208V68.9208C57.333 69.1669 57.5325 69.3665 57.7787 69.3665H59.0606C60.0148 69.3665 60.7883 68.593 60.7883 67.6388V59.1993C60.7883 57.5378 60.1853 56.3766 59.0592 55.7771" fill="white"/>
</g>
<g filter="url(#filter5_d_1651_92)">
<path d="M46.8847 67.6411V53.0825C46.8847 52.1298 46.1124 51.3574 45.1596 51.3574C44.2069 51.3574 43.4346 52.1298 43.4346 53.0825V67.6411C43.4346 68.5938 44.2069 69.3662 45.1596 69.3662C46.1124 69.3662 46.8847 68.5938 46.8847 67.6411Z" fill="white"/>
</g>
<g filter="url(#filter6_d_1651_92)">
<path d="M70.2529 55.0068C70.2031 55.0105 70.1538 55.0191 70.1057 55.0323L68.8472 55.3798C68.2742 55.6118 67.7472 55.9372 67.2865 56.34C66.9754 56.6119 66.392 56.4077 66.392 55.9946V55.9946C66.392 55.7629 66.2054 55.5746 65.9738 55.5724L64.7649 55.561C63.8518 55.5524 63.1069 56.2903 63.1069 57.2035V67.6582C63.1069 68.6019 63.872 69.3669 64.8157 69.3669V69.3669C65.7594 69.3669 66.5244 68.6019 66.5244 67.6582V62.7565C66.4608 61.923 66.6105 61.0871 66.9594 60.3275C67.2251 59.7819 67.639 59.3221 68.1538 59.0008C68.709 58.6141 69.3685 58.4052 70.0451 58.4018V58.4018C70.6171 58.4384 71.0997 57.9815 71.0945 57.4083L71.0795 55.7668C71.0755 55.3221 70.6963 54.9735 70.2529 55.0068V55.0068Z" fill="white"/>
</g>
<g filter="url(#filter7_d_1651_92)">
<path d="M97.0223 59.8096V59.8096C97.0223 59.3074 96.6152 58.9004 96.1131 58.9004H89.4414C88.5879 58.9004 87.896 59.5923 87.896 60.4458V60.4458C87.896 61.2993 88.5879 61.9913 89.4414 61.9913H94.8499C96.0497 61.9913 97.0223 61.0187 97.0223 59.8189V59.8189" fill="white"/>
</g>
<defs>
<filter id="filter0_d_1651_92" x="66.8193" y="27.5547" width="45.2402" height="45.2461" filterUnits="userSpaceOnUse" color-interpolation-filters="sRGB">
<feFlood flood-opacity="0" result="BackgroundImageFix"/>
<feColorMatrix in="SourceAlpha" type="matrix" values="0 0 0 0 0 0 0 0 0 0 0 0 0 0 0 0 0 0 127 0" result="hardAlpha"/>
<feOffset/>
<feGaussianBlur stdDeviation="9"/>
<feComposite in2="hardAlpha" operator="out"/>
<feColorMatrix type="matrix" values="0 0 0 0 0.839216 0 0 0 0 0.129412 0 0 0 0 0.156863 0 0 0 1 0"/>
<feBlend mode="normal" in2="BackgroundImageFix" result="effect1_dropShadow_1651_92"/>
<feBlend mode="normal" in="SourceGraphic" in2="effect1_dropShadow_1651_92" result="shape"/>
</filter>
<filter id="filter1_d_1651_92" x="59.4443" y="25.1797" width="39.0854" height="44.9414" filterUnits="userSpaceOnUse" color-interpolation-filters="sRGB">
<feFlood flood-opacity="0" result="BackgroundImageFix"/>
<feColorMatrix in="SourceAlpha" type="matrix" values="0 0 0 0 0 0 0 0 0 0 0 0 0 0 0 0 0 0 127 0" result="hardAlpha"/>
<feOffset/>
<feGaussianBlur stdDeviation="9"/>
<feComposite in2="hardAlpha" operator="out"/>
<feColorMatrix type="matrix" values="0 0 0 0 0.839216 0 0 0 0 0.129412 0 0 0 0 0.156863 0 0 0 1 0"/>
<feBlend mode="normal" in2="BackgroundImageFix" result="effect1_dropShadow_1651_92"/>
<feBlend mode="normal" in="SourceGraphic" in2="effect1_dropShadow_1651_92" result="shape"/>
</filter>
<filter id="filter2_d_1651_92" x="53.4048" y="36.9082" width="50.3696" height="50.5527" filterUnits="userSpaceOnUse" color-interpolation-filters="sRGB">
<feFlood flood-opacity="0" result="BackgroundImageFix"/>
<feColorMatrix in="SourceAlpha" type="matrix" values="0 0 0 0 0 0 0 0 0 0 0 0 0 0 0 0 0 0 127 0" result="hardAlpha"/>
<feOffset/>
<feGaussianBlur stdDeviation="9"/>
<feComposite in2="hardAlpha" operator="out"/>
<feColorMatrix type="matrix" values="0 0 0 0 0.839216 0 0 0 0 0.129412 0 0 0 0 0.156863 0 0 0 1 0"/>
<feBlend mode="normal" in2="BackgroundImageFix" result="effect1_dropShadow_1651_92"/>
<feBlend mode="normal" in="SourceGraphic" in2="effect1_dropShadow_1651_92" result="shape"/>
</filter>
<filter id="filter3_d_1651_92" x="6.25635" y="33.3496" width="52.6909" height="53.9492" filterUnits="userSpaceOnUse" color-interpolation-filters="sRGB">
<feFlood flood-opacity="0" result="BackgroundImageFix"/>
<feColorMatrix in="SourceAlpha" type="matrix" values="0 0 0 0 0 0 0 0 0 0 0 0 0 0 0 0 0 0 127 0" result="hardAlpha"/>
<feOffset/>
<feGaussianBlur stdDeviation="9"/>
<feComposite in2="hardAlpha" operator="out"/>
<feColorMatrix type="matrix" values="0 0 0 0 0.839216 0 0 0 0 0.129412 0 0 0 0 0.156863 0 0 0 1 0"/>
<feBlend mode="normal" in2="BackgroundImageFix" result="effect1_dropShadow_1651_92"/>
<feBlend mode="normal" in="SourceGraphic" in2="effect1_dropShadow_1651_92" result="shape"/>
</filter>
<filter id="filter4_d_1651_92" x="30.8999" y="36.873" width="47.8882" height="50.4941" filterUnits="userSpaceOnUse" color-interpolation-filters="sRGB">
<feFlood flood-opacity="0" result="BackgroundImageFix"/>
<feColorMatrix in="SourceAlpha" type="matrix" values="0 0 0 0 0 0 0 0 0 0 0 0 0 0 0 0 0 0 127 0" result="hardAlpha"/>
<feOffset/>
<feGaussianBlur stdDeviation="9"/>
<feComposite in2="hardAlpha" operator="out"/>
<feColorMatrix type="matrix" values="0 0 0 0 0.839216 0 0 0 0 0.129412 0 0 0 0 0.156863 0 0 0 1 0"/>
<feBlend mode="normal" in2="BackgroundImageFix" result="effect1_dropShadow_1651_92"/>
<feBlend mode="normal" in="SourceGraphic" in2="effect1_dropShadow_1651_92" result="shape"/>
</filter>
<filter id="filter5_d_1651_92" x="25.4346" y="33.3574" width="39.4502" height="54.0078" filterUnits="userSpaceOnUse" color-interpolation-filters="sRGB">
<feFlood flood-opacity="0" result="BackgroundImageFix"/>
<feColorMatrix in="SourceAlpha" type="matrix" values="0 0 0 0 0 0 0 0 0 0 0 0 0 0 0 0 0 0 127 0" result="hardAlpha"/>
<feOffset/>
<feGaussianBlur stdDeviation="9"/>
<feComposite in2="hardAlpha" operator="out"/>
<feColorMatrix type="matrix" values="0 0 0 0 0.839216 0 0 0 0 0.129412 0 0 0 0 0.156863 0 0 0 1 0"/>
<feBlend mode="normal" in2="BackgroundImageFix" result="effect1_dropShadow_1651_92"/>
<feBlend mode="normal" in="SourceGraphic" in2="effect1_dropShadow_1651_92" result="shape"/>
</filter>
<filter id="filter6_d_1651_92" x="45.1069" y="37.0039" width="43.9878" height="50.3633" filterUnits="userSpaceOnUse" color-interpolation-filters="sRGB">
<feFlood flood-opacity="0" result="BackgroundImageFix"/>
<feColorMatrix in="SourceAlpha" type="matrix" values="0 0 0 0 0 0 0 0 0 0 0 0 0 0 0 0 0 0 127 0" result="hardAlpha"/>
<feOffset/>
<feGaussianBlur stdDeviation="9"/>
<feComposite in2="hardAlpha" operator="out"/>
<feColorMatrix type="matrix" values="0 0 0 0 0.839216 0 0 0 0 0.129412 0 0 0 0 0.156863 0 0 0 1 0"/>
<feBlend mode="normal" in2="BackgroundImageFix" result="effect1_dropShadow_1651_92"/>
<feBlend mode="normal" in="SourceGraphic" in2="effect1_dropShadow_1651_92" result="shape"/>
</filter>
<filter id="filter7_d_1651_92" x="69.896" y="40.9004" width="45.1265" height="39.0918" filterUnits="userSpaceOnUse" color-interpolation-filters="sRGB">
<feFlood flood-opacity="0" result="BackgroundImageFix"/>
<feColorMatrix in="SourceAlpha" type="matrix" values="0 0 0 0 0 0 0 0 0 0 0 0 0 0 0 0 0 0 127 0" result="hardAlpha"/>
<feOffset/>
<feGaussianBlur stdDeviation="9"/>
<feComposite in2="hardAlpha" operator="out"/>
<feColorMatrix type="matrix" values="0 0 0 0 0.839216 0 0 0 0 0.129412 0 0 0 0 0.156863 0 0 0 1 0"/>
<feBlend mode="normal" in2="BackgroundImageFix" result="effect1_dropShadow_1651_92"/>
<feBlend mode="normal" in="SourceGraphic" in2="effect1_dropShadow_1651_92" result="shape"/>
</filter>
</defs>
</svg>
