<svg width="70" height="70" viewBox="0 0 70 70" fill="none" xmlns="http://www.w3.org/2000/svg">
<path d="M35 70C54.33 70 70 54.33 70 35C70 15.67 54.33 0 35 0C15.67 0 0 15.67 0 35C0 54.33 15.67 70 35 70Z" fill="#2B2E3A"/>
<path d="M27.481 19.6033C20.3702 18.3083 14.7478 19.6638 12.507 23.5449C10.8349 26.4412 11.3129 30.2811 13.6664 34.3856C13.7128 34.4709 13.7759 34.546 13.8518 34.6066C13.9276 34.6671 14.0149 34.7119 14.1083 34.7384C14.2017 34.7648 14.2995 34.7723 14.3959 34.7604C14.4922 34.7485 14.5852 34.7175 14.6695 34.6692C14.7537 34.6209 14.8274 34.5563 14.8863 34.4791C14.9452 34.4019 14.9882 34.3137 15.0125 34.2198C15.0369 34.1258 15.0423 34.0279 15.0284 33.9318C15.0144 33.8357 14.9814 33.7434 14.9313 33.6602C12.8116 29.9628 12.399 26.649 13.77 24.2742C15.6316 21.0501 20.6464 19.841 27.2196 21.0381C27.4085 21.0695 27.6021 21.0254 27.7588 20.9153C27.9154 20.8051 28.0225 20.6378 28.0568 20.4494C28.0911 20.261 28.05 20.0667 27.9422 19.9084C27.8345 19.7501 27.6688 19.6405 27.481 19.6033ZM17.3641 39.3748C20.2393 42.5344 23.9747 45.4981 28.2348 47.9574C38.5497 53.9129 49.531 55.5046 54.9429 51.8146C55.0238 51.7614 55.0933 51.6926 55.1474 51.6123C55.2015 51.532 55.2391 51.4417 55.2579 51.3467C55.2767 51.2517 55.2764 51.1539 55.257 51.059C55.2377 50.9642 55.1996 50.8741 55.145 50.7941C55.0905 50.7141 55.0205 50.6457 54.9392 50.5931C54.858 50.5404 54.767 50.5044 54.6717 50.4873C54.5764 50.4701 54.4787 50.4721 54.3841 50.4931C54.2896 50.5142 54.2002 50.5538 54.1212 50.6098C49.2775 53.9124 38.8464 52.4003 28.9641 46.6947C24.8314 44.3087 21.2141 41.4387 18.4428 38.3931C18.3784 38.3219 18.3007 38.264 18.2139 38.2229C18.1272 38.1818 18.0331 38.1582 17.9372 38.1535C17.8414 38.1488 17.7455 38.1631 17.6551 38.1955C17.5648 38.2279 17.4817 38.2779 17.4107 38.3425C17.3397 38.4071 17.2821 38.4851 17.2413 38.572C17.2006 38.6589 17.1773 38.7531 17.173 38.849C17.1687 38.9449 17.1833 39.0407 17.2161 39.1309C17.2489 39.2212 17.2992 39.304 17.3641 39.3748Z" fill="#9FEAF9"/>
<path d="M53.2164 38.4885C57.8725 32.988 59.4981 27.4559 57.2619 23.5829C55.6166 20.7329 52.1382 19.2281 47.5152 19.168C47.3236 19.1683 47.1399 19.2439 47.0036 19.3786C46.8674 19.5133 46.7896 19.6962 46.7871 19.8878C46.7846 20.0794 46.8576 20.2642 46.9904 20.4024C47.1231 20.5406 47.3048 20.621 47.4964 20.6262C51.654 20.6804 54.6509 21.9767 55.9992 24.3121C57.8564 27.5291 56.4066 32.4625 52.1032 37.5463C52.0401 37.6192 51.992 37.7039 51.9619 37.7955C51.9317 37.8871 51.92 37.9838 51.9274 38.08C51.9349 38.1761 51.9614 38.2699 52.0053 38.3558C52.0492 38.4416 52.1097 38.5179 52.1834 38.5803C52.257 38.6426 52.3422 38.6897 52.4342 38.7188C52.5261 38.748 52.623 38.7586 52.719 38.75C52.8151 38.7415 52.9085 38.714 52.9939 38.6691C53.0793 38.6242 53.1549 38.5628 53.2164 38.4885ZM41.2505 19.8469C37.0407 20.749 32.5596 22.5127 28.2562 24.9971C17.608 31.1448 10.6619 40.2101 11.6266 46.7832C11.6394 46.8789 11.6711 46.971 11.7199 47.0543C11.7686 47.1376 11.8334 47.2104 11.9105 47.2685C11.9876 47.3266 12.0754 47.3688 12.169 47.3927C12.2625 47.4165 12.3598 47.4216 12.4553 47.4076C12.5508 47.3935 12.6425 47.3607 12.7252 47.311C12.8079 47.2612 12.8799 47.1955 12.9371 47.1178C12.9942 47.04 13.0353 46.9516 13.0581 46.8578C13.0808 46.764 13.0847 46.6666 13.0695 46.5713C12.2128 40.7351 18.7972 32.1423 28.9855 26.2601C33.16 23.8498 37.4989 22.1421 41.5559 21.2729C41.6509 21.2542 41.7412 21.2168 41.8215 21.1628C41.9018 21.1088 41.9706 21.0394 42.0239 20.9586C42.0771 20.8778 42.1137 20.7872 42.1316 20.6921C42.1495 20.597 42.1483 20.4993 42.128 20.4047C42.1077 20.31 42.0688 20.2204 42.0136 20.1409C41.9583 20.0615 41.8878 19.9939 41.8061 19.9419C41.7244 19.89 41.6332 19.8549 41.5379 19.8386C41.4425 19.8223 41.3448 19.8251 41.2505 19.8469Z" fill="#9FEAF9"/>
<path d="M23.9996 51.3397C26.4343 58.1373 30.4169 62.3228 34.8953 62.3228C38.1615 62.3228 41.1832 60.0962 43.5397 56.1765C43.5907 56.0944 43.6249 56.003 43.6402 55.9075C43.6556 55.8121 43.6518 55.7146 43.6291 55.6206C43.6064 55.5266 43.5653 55.4381 43.5081 55.3602C43.4509 55.2823 43.3788 55.2165 43.296 55.1667C43.2131 55.1169 43.1212 55.0841 43.0256 55.0701C42.9299 55.0561 42.8325 55.0613 42.7388 55.0854C42.6452 55.1094 42.5573 55.1518 42.4802 55.2101C42.4031 55.2685 42.3384 55.3415 42.2898 55.4251C40.1721 58.9478 37.5708 60.8643 34.8953 60.8643C31.1751 60.8643 27.6229 57.1313 25.3728 50.8483C25.342 50.7563 25.2931 50.6714 25.2291 50.5985C25.165 50.5256 25.0871 50.4663 24.9998 50.4239C24.9125 50.3815 24.8176 50.357 24.7208 50.3517C24.6239 50.3465 24.5269 50.3606 24.4356 50.3933C24.3442 50.426 24.2603 50.4766 24.1888 50.5421C24.1172 50.6077 24.0595 50.6868 24.0189 50.7749C23.9783 50.8631 23.9557 50.9584 23.9525 51.0554C23.9492 51.1524 23.9653 51.249 23.9999 51.3397H23.9996ZM46.2361 50.0099C47.4966 45.9827 48.1734 41.337 48.1734 36.4958C48.1734 24.4156 43.9452 14.002 37.923 11.3281C37.7471 11.2544 37.5493 11.2526 37.3721 11.323C37.1948 11.3934 37.0522 11.5305 36.9748 11.7048C36.8974 11.8791 36.8914 12.0769 36.958 12.2556C37.0247 12.4343 37.1587 12.5798 37.3313 12.6608C42.7024 15.046 46.7149 24.9289 46.7149 36.4958C46.7149 41.1927 46.0594 45.6915 44.8446 49.5743C44.8144 49.6662 44.8027 49.7631 44.8103 49.8594C44.8179 49.9557 44.8446 50.0496 44.8888 50.1356C44.933 50.2215 44.9938 50.2978 45.0678 50.36C45.1417 50.4223 45.2273 50.4692 45.3195 50.4981C45.4118 50.5269 45.5088 50.5372 45.605 50.5282C45.7013 50.5192 45.7947 50.4912 45.8801 50.4458C45.9654 50.4004 46.0408 50.3385 46.102 50.2636C46.1631 50.1888 46.2088 50.1026 46.2364 50.0099H46.2361ZM59.9692 49.2957C59.9692 47.3683 58.4068 45.8058 56.4793 45.8058C54.5519 45.8058 52.9894 47.3683 52.9894 49.2957C52.9894 51.2232 54.5519 52.7856 56.4793 52.7856C58.4068 52.7856 59.9692 51.2232 59.9692 49.2957ZM58.511 49.2957C58.511 49.5625 58.4584 49.8267 58.3563 50.0732C58.2542 50.3197 58.1046 50.5436 57.9159 50.7323C57.7273 50.921 57.5033 51.0706 57.2568 51.1727C57.0103 51.2748 56.7461 51.3274 56.4793 51.3274C56.2125 51.3274 55.9483 51.2748 55.7018 51.1727C55.4554 51.0706 55.2314 50.921 55.0427 50.7323C54.8541 50.5436 54.7044 50.3197 54.6023 50.0732C54.5002 49.8267 54.4477 49.5625 54.4477 49.2957C54.4477 48.7569 54.6617 48.2401 55.0427 47.8591C55.4237 47.4781 55.9405 47.2641 56.4793 47.2641C57.0181 47.2641 57.5349 47.4781 57.9159 47.8591C58.2969 48.2401 58.511 48.7569 58.511 49.2957ZM13.2609 52.7856C15.1886 52.7856 16.751 51.2232 16.751 49.2957C16.751 47.3683 15.1883 45.8058 13.2609 45.8058C11.3337 45.8058 9.771 47.3683 9.771 49.2957C9.771 51.2232 11.3337 52.7856 13.2609 52.7856ZM13.2609 51.3274C12.7221 51.3274 12.2053 51.1133 11.8243 50.7323C11.4433 50.3513 11.2292 49.8345 11.2292 49.2957C11.2292 48.7569 11.4433 48.2401 11.8243 47.8591C12.2053 47.4781 12.7221 47.2641 13.2609 47.2641C13.7997 47.2641 14.3165 47.4781 14.6975 47.8591C15.0785 48.2401 15.2925 48.7569 15.2925 49.2957C15.2925 49.8345 15.0785 50.3513 14.6975 50.7323C14.3165 51.1133 13.7997 51.3274 13.2609 51.3274Z" fill="#9FEAF9"/>
<path d="M34.8953 14.888C36.8227 14.888 38.3852 13.3255 38.3852 11.3981C38.3852 9.47063 36.8227 7.9082 34.8953 7.9082C32.9678 7.9082 31.4054 9.47063 31.4054 11.3981C31.4054 13.3255 32.9678 14.888 34.8953 14.888ZM34.8953 13.4297C34.3565 13.4297 33.8397 13.2157 33.4587 12.8347C33.0777 12.4537 32.8636 11.9369 32.8636 11.3981C32.8636 10.8593 33.0777 10.3425 33.4587 9.9615C33.8397 9.58049 34.3565 9.36645 34.8953 9.36645C35.4341 9.36645 35.9509 9.58049 36.3319 9.9615C36.7129 10.3425 36.9269 10.8593 36.9269 11.3981C36.9269 11.9369 36.7129 12.4537 36.3319 12.8347C35.9509 13.2157 35.4341 13.4297 34.8953 13.4297ZM35.4282 38.9639C34.0651 39.2584 32.7223 38.3921 32.4272 37.029C32.286 36.3745 32.4104 35.6906 32.7732 35.1278C33.1361 34.565 33.7076 34.1693 34.3621 34.0278C35.7252 33.7333 37.068 34.5995 37.3633 35.9626C37.6578 37.3257 36.7916 38.6688 35.4282 38.9639Z" fill="#9FEAF9"/>
</svg>
