<svg width="120" height="120" viewBox="0 0 120 120" fill="none" xmlns="http://www.w3.org/2000/svg">
<g filter="url(#filter0_dd_1651_115)">
<g clip-path="url(#clip0_1651_115)">
<path d="M27.6306 49.945C33.1956 48.0929 39.1774 51.1103 41.0324 56.6455C41.1575 57.0409 41.2825 57.4571 41.3659 57.8525L48.6191 56.375C46.6182 46.6571 37.114 40.3727 27.3596 42.3704C26.651 42.516 25.9632 42.7033 25.2754 42.9322L27.6306 49.945Z" fill="#FFBF00"/>
<path d="M19.0645 73.4396L23.9625 67.9043C19.5856 64.0338 19.1687 57.354 23.0455 52.9841C23.3373 52.6511 23.629 52.3598 23.9625 52.0685L19.0645 46.5332C11.6237 53.1089 10.9359 64.45 17.5222 71.8789C18.0016 72.4199 18.5226 72.9402 19.0645 73.4396Z" fill="#0091D8"/>
<path d="M41.3659 62.0977C40.1779 67.8202 34.5712 71.5034 28.8395 70.3173C28.4226 70.2341 28.0266 70.13 27.6306 69.9844L25.2754 76.9971C34.7171 80.1393 44.9091 75.041 48.0563 65.6144C48.2856 64.9485 48.4732 64.2618 48.5982 63.5751L41.3659 62.0977Z" fill="#DD190A"/>
<path d="M54.9555 68.1316C54.6637 67.6738 54.4136 67.1743 54.2051 66.6749C51.8708 61.2021 54.3094 54.8552 59.7076 52.3581C63.0007 50.9431 66.7941 51.2136 69.8579 53.0865C71.9422 54.3558 73.5262 56.2703 74.3808 58.5385C74.5267 58.8714 74.6309 59.2044 74.7559 59.4957L54.9555 68.1316ZM61.5626 56.624C59.2699 57.5813 57.8943 59.9535 58.2486 62.409L68.2114 58.1223C66.669 56.083 63.8553 55.4379 61.5626 56.624ZM69.4619 65.9466L69.2535 65.8217C68.6074 66.8206 67.6694 67.6113 66.5648 68.0691C64.3346 69.0264 62.2712 68.7975 60.7914 67.4865L60.6455 67.6946L58.1235 71.461C58.7488 71.898 59.4158 72.2726 60.1244 72.5639C64.9182 74.4992 70.4207 72.8136 73.3178 68.5269L69.4619 65.9466Z" fill="white"/>
<path d="M81.6963 46.7812V67.757L84.9686 69.0888L83.1136 73.4171L79.5079 71.9188C78.7784 71.6067 78.1739 71.0865 77.7362 70.4206C77.2569 69.6506 77.0067 68.735 77.0484 67.8194V46.7812H81.6963Z" fill="white"/>
<path d="M90.1585 62.4313C90.1585 60.7041 90.9088 59.081 92.201 57.9573L88.8454 54.2324C84.3017 58.2486 83.864 65.1781 87.8866 69.7145C88.1784 70.0475 88.4911 70.3596 88.8245 70.6509L92.1802 66.9053C90.888 65.7816 90.1585 64.1376 90.1585 62.4313Z" fill="white"/>
<path d="M96.1197 68.3812C95.4736 68.3812 94.8483 68.2772 94.223 68.0691L92.6182 72.8136C98.3707 74.728 104.603 71.6483 106.52 65.9049C106.666 65.4887 106.77 65.0726 106.854 64.6356L101.935 63.6367C101.372 66.4043 98.9335 68.3812 96.1197 68.3812Z" fill="white"/>
<path d="M96.1194 51.4648C94.9314 51.4648 93.7642 51.6521 92.6387 52.0267L94.2227 56.792C97.3491 55.7515 100.726 57.4371 101.768 60.5585C101.851 60.7874 101.914 61.0163 101.955 61.2452L106.874 60.2463C105.832 55.1481 101.351 51.4857 96.1194 51.4648Z" fill="white"/>
</g>
</g>
<defs>
<filter id="filter0_dd_1651_115" x="-4" y="0" width="128" height="128" filterUnits="userSpaceOnUse" color-interpolation-filters="sRGB">
<feFlood flood-opacity="0" result="BackgroundImageFix"/>
<feColorMatrix in="SourceAlpha" type="matrix" values="0 0 0 0 0 0 0 0 0 0 0 0 0 0 0 0 0 0 127 0" result="hardAlpha"/>
<feOffset dy="4"/>
<feGaussianBlur stdDeviation="2"/>
<feComposite in2="hardAlpha" operator="out"/>
<feColorMatrix type="matrix" values="0 0 0 0 0 0 0 0 0 0 0 0 0 0 0 0 0 0 0.25 0"/>
<feBlend mode="normal" in2="BackgroundImageFix" result="effect1_dropShadow_1651_115"/>
<feColorMatrix in="SourceAlpha" type="matrix" values="0 0 0 0 0 0 0 0 0 0 0 0 0 0 0 0 0 0 127 0" result="hardAlpha"/>
<feOffset dy="4"/>
<feGaussianBlur stdDeviation="2"/>
<feComposite in2="hardAlpha" operator="out"/>
<feColorMatrix type="matrix" values="0 0 0 0 0 0 0 0 0 0 0 0 0 0 0 0 0 0 0.25 0"/>
<feBlend mode="normal" in2="effect1_dropShadow_1651_115" result="effect2_dropShadow_1651_115"/>
<feBlend mode="normal" in="SourceGraphic" in2="effect2_dropShadow_1651_115" result="shape"/>
</filter>
<clipPath id="clip0_1651_115">
<rect width="94" height="36" fill="white" transform="translate(13 42)"/>
</clipPath>
</defs>
</svg>
