<svg width="70" height="70" viewBox="0 0 70 70" fill="none" xmlns="http://www.w3.org/2000/svg">
<g clip-path="url(#clip0_1701_6)">
<path d="M0 0H70V70H0V0Z" fill="#F7DF1E"/>
<path d="M18.4057 58.4962L23.7623 55.2543C24.7959 57.0866 25.736 58.637 27.991 58.637C30.1525 58.637 31.5156 57.7916 31.5156 54.5027V32.136H38.0937V54.5956C38.0937 61.4089 34.0999 64.5102 28.2729 64.5102C23.0106 64.5102 19.9561 61.7848 18.4054 58.4957M41.6667 57.7913L47.0228 54.6902C48.4329 56.9928 50.2655 58.6843 53.5074 58.6843C56.2333 58.6843 57.9713 57.3215 57.9713 55.4419C57.9713 53.1866 56.1857 52.3876 53.1784 51.0724L51.5343 50.3669C46.7882 48.347 43.6401 45.8095 43.6401 40.4529C43.6401 35.519 47.3991 31.7598 53.2728 31.7598C57.4547 31.7598 60.462 33.2166 62.6232 37.0226L57.5012 40.3121C56.3733 38.2916 55.1521 37.4929 53.2725 37.4929C51.3459 37.4929 50.1241 38.7146 50.1241 40.3121C50.1241 42.2855 51.3459 43.0847 54.165 44.3064L55.8095 45.0111C61.4012 47.4078 64.5493 49.8509 64.5493 55.3481C64.5493 61.2691 59.8976 64.511 53.6482 64.511C47.5399 64.511 43.5928 61.5978 41.6664 57.7916" fill="black"/>
</g>
<defs>
<clipPath id="clip0_1701_6">
<rect width="70" height="70" fill="white"/>
</clipPath>
</defs>
</svg>
