<svg width="66" height="66" viewBox="0 0 66 66" fill="none" xmlns="http://www.w3.org/2000/svg">
<path fill-rule="evenodd" clip-rule="evenodd" d="M44.1909 30.6602C44.1909 30.6602 47.7912 22.0776 42.1139 19.0317C36.4365 15.9858 32.4209 20.4135 31.4516 22.9058C30.4823 25.3981 30.0667 27.4755 30.0667 27.4755C30.0667 27.4755 28.2666 24.8446 26.1895 22.906C24.1124 20.9674 20.9757 19.7494 17.7428 21.6598C14.6964 23.4599 15.9428 28.9987 15.9428 28.9987C15.9428 28.9987 16.229 29.9823 16.7734 30.7989C17.3178 31.6155 19.2659 34.1222 19.2659 34.1222C19.2659 34.1222 14.8226 32.4463 13.4502 33.7068C12.0778 34.9672 14.281 37.8609 14.281 37.8609C14.281 37.8609 15.5275 39.5084 17.8814 41.0457C20.2353 42.5831 22.8662 42.9843 22.8662 42.9843C22.8662 42.9843 22.1739 44.2448 23.6971 45.3525C24.3489 45.8266 27.0204 47 30.7591 47C34.4978 47 35.4671 45.7538 35.4671 45.7538C35.4671 45.7538 37.4057 46.3076 40.8675 45.6153C44.3293 44.9229 47.0987 42.5831 47.0987 42.5831C47.0987 42.5831 48.6219 41.3227 48.068 40.6303C47.5141 39.938 46.1294 40.0764 46.1294 40.0764C46.1294 40.0764 47.6527 39.404 49.8682 37.7224C52.0836 36.0408 52.6376 34.5376 52.6376 34.5376C52.6376 34.5376 54.7146 30.3834 52.6376 28.8603C50.5605 27.3371 47.0987 29.1372 47.0987 29.1372L44.1909 30.6602ZM20.0969 25.4127C17.8814 26.7976 19.4045 29.9823 19.4045 29.9823C19.7369 30.7577 22.1278 33.6287 23.2818 34.9672C23.2818 34.9672 24.5279 36.075 24.2511 36.7673C23.9742 37.4597 21.7586 37.1827 21.7586 37.1827C21.7586 37.1827 18.5737 36.6288 17.8814 36.3519C17.189 36.075 16.3582 35.798 15.9428 36.3519C15.5274 36.9058 17.0506 38.429 17.0506 38.429C17.0506 38.429 18.2968 39.6752 20.0969 40.3676C21.8971 41.0599 24.9434 41.6138 24.9434 41.6138C24.9434 41.6138 26.882 41.8908 27.0205 42.5831C27.1589 43.2755 26.4666 43.8293 26.4666 43.8293C26.4666 43.8293 25.9127 44.1063 26.0512 44.5217C26.1896 44.9371 27.7128 45.3525 29.7899 45.3525C31.867 45.3525 32.4209 45.2141 32.6978 45.0756C32.9747 44.9371 33.6671 43.9678 34.3595 43.8293C35.0518 43.6909 35.8826 43.9678 35.8826 43.9678C35.8826 43.9678 37.5443 44.3832 38.7905 44.3832C40.0368 44.3832 42.9447 43.4139 42.9447 43.4139C42.9447 43.4139 44.6063 42.926 44.6063 42.4446C44.6063 41.9633 42.9447 42.0292 42.5293 41.8907C42.1139 41.7523 41.0061 41.4753 41.0061 40.783C41.0061 40.0906 42.5293 39.3983 42.5293 39.3983C42.5293 39.3983 47.0988 37.3212 47.5142 37.0442C47.9296 36.7673 51.5299 33.9979 50.1452 32.3362C48.7605 30.6746 43.914 33.9979 43.914 33.9979C43.914 33.9979 40.8676 35.798 39.8983 34.8287C38.929 33.8594 40.1753 31.7823 40.1753 31.7823C40.1753 31.7823 44.3294 24.5682 39.7598 22.9059C35.1903 21.2436 33.8054 26.7832 33.8054 26.7832C33.8054 26.7832 32.9746 31.3527 31.3129 32.4605C29.6513 33.5683 27.8513 29.8294 25.9127 27.6138C23.9741 25.3983 22.3124 24.0279 20.0969 25.4127Z" fill="url(#paint0_linear_1640_71)"/>
<defs>
<linearGradient id="paint0_linear_1640_71" x1="30.0668" y1="27.614" x2="35.6056" y2="45.7538" gradientUnits="userSpaceOnUse">
<stop stop-color="#FFBC43"/>
<stop offset="1" stop-color="#F14745"/>
</linearGradient>
</defs>
</svg>
