<svg width="70" height="70" viewBox="0 0 70 70" fill="none" xmlns="http://www.w3.org/2000/svg">
<path d="M17.3045 17.369H9.91604L7.38411 21.2667H15.749C15.749 21.2667 17.3045 21.0717 17.3045 22.4367C17.3045 23.8017 15.749 23.6067 15.749 23.6067H5.864L3.33049 27.5068C3.33049 27.5068 23.7207 27.3118 25.0818 27.3118C26.4428 27.3118 28.9704 27.5068 31.1092 26.3368C32.1943 25.7432 32.6646 25.3618 33.4423 24.1918C34.2201 23.0217 39.2753 14.639 39.2753 14.639C39.2753 14.639 40.2475 13.1782 41.4141 13.8565C42.5807 14.5349 41.9974 15.8066 41.9974 15.8066L36.5533 24.5818C36.5533 24.5818 34.1778 28.0837 32.0813 29.0669C29.6581 30.2032 25.0818 30.0419 25.0818 30.0419H1.74989C1.74989 30.0419 0 32.1869 0 34.722L34.9978 34.5294L42.5807 22.9905L44.8668 19.5117L46.6609 16.7816L48.9676 13.2715L50.7468 10.5641L51.9134 8.78885L53.08 7.03382C53.08 7.03382 51.9134 6.19109 49.5802 6.0588C49.2404 6.03953 48.6282 6.02587 47.8303 6.0166L45.1083 10.3465C45.1083 10.3465 43.8166 11.5165 42.9695 10.3465C42.6132 9.85425 42.9695 8.78885 42.9695 8.78885L44.525 6.0002C43.1166 5.99907 41.5667 6.00277 40.053 6.0088C40.053 6.0088 33.8321 15.6028 31.7996 19.1128C29.7672 22.6229 28.1927 23.4117 24.8873 23.4117H21.7764C21.7764 23.4117 20.4154 23.6067 20.4154 22.2417C20.4154 20.8767 21.7764 20.8767 21.7764 20.8767C21.7764 20.8767 19.602 20.8767 22.943 20.8767C26.284 20.8767 26.7053 20.8767 29.2802 17.369C31.855 13.8614 32.0813 13.2715 32.0813 13.2715L36.5533 6.02659C33.988 6.04216 32.0813 6.0588 32.0813 6.0588C32.0813 6.0588 29.6653 10.6095 27.3735 14.3321C25.0818 18.0547 20.7004 17.369 17.3045 17.369Z" fill="url(#paint0_radial_1140_68)"/>
<path d="M44.1361 58.3175C44.3318 58.5125 47.0526 63 47.0526 63C47.0526 63 49.4473 62.9058 50.1848 62.754C51.1828 62.5487 52.1078 62.025 52.1078 62.025L49.8007 58.3175L48.0036 55.4296L45.886 52.0266L44.1361 49.2145L41.7918 45.4472L34.9978 34.5294L0 34.722C0 37.257 1.74989 39.7921 1.74989 39.7921H25.6651C28.776 39.7921 29.7481 40.3771 29.7481 40.3771C29.7481 40.3771 32.4054 41.1571 34.2201 43.8872C36.0348 46.6172 39.567 52.4673 39.8586 53.0524C40.1503 53.6374 40.8308 55.1383 39.6642 55.5874C38.3032 56.1114 37.5254 54.6124 37.5254 54.6124L31.498 45.0572C31.498 45.0572 30.378 43.6989 29.5537 43.3022C28.1927 42.6472 26.6372 42.7171 26.6372 42.7171H3.68092L5.85503 46.2272H14.5824C14.5824 46.2272 15.5546 46.4222 15.5546 47.3972C15.5546 48.3723 14.5824 48.5673 14.5824 48.5673H7.30443L9.72161 52.4698H17.8878C20.4154 52.4698 23.1008 53.7297 24.8873 55.1974C26.5459 56.56 30.137 63 30.137 63H34.7805C34.7805 63 28.3871 52.6623 27.6094 51.4923C26.8317 50.3223 25.2762 49.5423 25.2762 49.5423C25.2762 49.5423 24.1096 48.7623 22.3597 48.7623H20.0265C20.0265 48.7623 18.8599 48.7623 18.8599 47.5922C18.8599 46.4222 20.0265 46.2272 20.0265 46.2272H22.943C24.8873 46.2272 26.6372 47.2022 26.6372 47.2022C26.6372 47.2022 28.5538 47.9823 29.9426 49.9323C31.8869 52.6623 38.1087 63 38.1087 63H43.7473C43.7473 63 41.9974 59.8751 41.8029 59.4875C41.6085 59.0999 41.7549 58.1807 42.3862 57.9275C43.355 57.5388 43.9364 58.1183 44.134 58.3154L44.1361 58.3175Z" fill="#B71C97"/>
<path d="M53.08 7.03382L51.9134 8.78885L50.7468 10.5641C50.9024 11.014 52.2375 12.9465 52.8856 14.0515C52.8856 14.0515 54.2466 15.8066 52.8856 16.5866C51.5245 17.3666 50.5524 15.8066 50.5524 15.8066L48.9676 13.2715L46.6609 16.7816L53.08 27.3118C53.08 27.3118 55.6347 30.9038 55.6076 33.747C55.5812 36.5189 53.4689 39.7921 53.4689 39.7921C53.4689 39.7921 52.4967 41.1571 51.3301 40.3771C50.1635 39.5971 51.719 37.647 51.719 37.647C51.719 37.647 53.1078 34.917 52.8856 33.3569C52.6634 31.7969 50.9412 29.0669 50.9412 29.0669L44.8668 19.5117L42.5807 22.9905C42.5807 22.9905 47.5813 29.4569 47.6359 33.747C47.693 38.232 41.7918 45.4472 41.7918 45.4472L44.1361 49.2145L47.6359 43.8872C47.6359 43.8872 48.6081 42.2263 49.9691 43.1072C51.1357 43.8621 50.1635 45.4472 50.1635 45.4472L45.886 52.0266L48.0036 55.4296L58.7185 39.0121C58.7185 39.0121 60.5704 36.3733 60.6629 34.332C60.7647 32.0842 58.7185 29.0669 58.7185 29.0669L54.441 22.2417C54.441 22.2417 53.08 20.6167 54.441 19.7067C55.8021 18.7966 56.7742 20.2917 56.7742 20.2917L61.0517 26.9218C61.0517 26.9218 64.1253 31.2248 63.9682 34.332C63.8288 37.0889 61.0517 40.7671 61.0517 40.7671L49.8007 58.3175L52.1078 62.025C52.1078 62.025 54.4966 60.6575 55.6076 59.0975C57.5519 56.3674 66.8847 41.3521 66.8847 41.3521C66.8847 41.3521 69.8676 37.3256 69.9956 34.332C70.1354 31.063 66.8847 26.9218 66.8847 26.9218C66.8847 26.9218 56.7742 10.7365 55.6076 9.17643C54.6355 7.87641 53.08 7.03382 53.08 7.03382Z" fill="#4A72F1"/>
<defs>
<radialGradient id="paint0_radial_1140_68" cx="0" cy="0" r="1" gradientUnits="userSpaceOnUse" gradientTransform="translate(35 34.5) rotate(-122.853) scale(27.6018 33.9222)">
<stop stop-color="#5601F8"/>
<stop offset="1" stop-color="#A61ADD"/>
</radialGradient>
</defs>
</svg>
