<svg width="72" height="72" viewBox="0 0 72 72" fill="none" xmlns="http://www.w3.org/2000/svg">
<path d="M71 36.0006C71 44.3213 55.33 51.0665 36 51.0665C16.67 51.0665 1 44.3213 1 36.0006C1 27.6799 16.67 20.9347 36 20.9347C55.33 20.9347 71 27.6799 71 36.0006ZM53.4999 70.1721C47.1082 74.3325 34.0917 62.4058 24.4267 43.5331C14.7617 24.6604 12.1082 5.9885 18.4999 1.82816C24.8917 -2.33219 37.9082 9.5945 47.5732 28.4672C57.2382 47.3398 59.8917 66.0118 53.4999 70.1721ZM18.4999 70.1718C12.1082 66.0115 14.7617 47.3396 24.4267 28.4669C34.0917 9.59423 47.1082 -2.33246 53.4999 1.82788C59.8916 5.98823 57.2382 24.6602 47.5732 43.5328C37.9082 62.4055 24.8916 74.3322 18.4999 70.1718Z" stroke="#61DAFB" stroke-width="2"/>
<circle cx="36" cy="36" r="6" fill="#61DAFB"/>
</svg>
