<svg width="70" height="70" viewBox="0 0 70 70" fill="none" xmlns="http://www.w3.org/2000/svg">
<path fill-rule="evenodd" clip-rule="evenodd" d="M2.625 0H67.3749C68.8247 0 70 1.15846 70 2.5875V66.4125C70 67.8416 68.8247 69 67.3749 69H2.625C1.17525 69 0 67.8416 0 66.4125V2.5875C0 1.15846 1.17525 0 2.625 0ZM38.9126 36.7091V31.05H14V36.7091H22.8942V61.9063H29.9747V36.7091H38.9126ZM41.7354 61.241C42.8771 61.8147 44.2276 62.2452 45.7865 62.532C47.3457 62.8189 48.9887 62.9625 50.7161 62.9625C52.3996 62.9625 53.9987 62.8046 55.5139 62.4891C57.0289 62.1735 58.3572 61.6534 59.499 60.9289C60.6408 60.2044 61.5448 59.2577 62.2108 58.0884C62.8769 56.9192 63.2099 55.4739 63.2099 53.7523C63.2099 52.5042 63.0196 51.4106 62.6389 50.4708C62.2585 49.5311 61.7096 48.6954 60.9921 47.9638C60.275 47.2321 59.4149 46.5758 58.4121 45.9949C57.4093 45.4139 56.2787 44.8651 55.0198 44.3487C54.0974 43.9756 53.2703 43.6133 52.5385 43.2619C51.8065 42.9106 51.1843 42.5518 50.6722 42.1861C50.1597 41.8201 49.7647 41.4329 49.4865 41.024C49.2083 40.6153 49.0693 40.1524 49.0693 39.636C49.0693 39.1625 49.1937 38.7358 49.4426 38.3558C49.6915 37.9755 50.0426 37.6491 50.4965 37.3765C50.9504 37.104 51.5065 36.8924 52.1653 36.7417C52.8239 36.5912 53.556 36.5159 54.361 36.5159C54.9466 36.5159 55.565 36.5589 56.2164 36.6448C56.8678 36.7311 57.523 36.8638 58.1815 37.0429C58.8404 37.2223 59.4809 37.4482 60.103 37.721C60.7251 37.9935 61.2996 38.3091 61.8267 38.6676V32.2336C60.7579 31.8318 59.5906 31.5341 58.3242 31.3406C57.0582 31.1469 55.6052 31.05 53.9657 31.05C52.2971 31.05 50.7161 31.2257 49.2229 31.5773C47.7298 31.9287 46.4161 32.4775 45.2815 33.2235C44.1469 33.9695 43.2504 34.9198 42.5918 36.0745C41.9329 37.2295 41.6036 38.6103 41.6036 40.2169C41.6036 42.2686 42.2074 44.0188 43.4151 45.4676C44.6229 46.9166 46.4563 48.1432 48.9155 49.1474C49.8818 49.5348 50.7818 49.9149 51.6164 50.288C52.4507 50.6609 53.1716 51.0483 53.779 51.4499C54.3865 51.8516 54.866 52.289 55.2174 52.7624C55.5687 53.2359 55.7444 53.7738 55.7444 54.3765C55.7444 54.8213 55.6345 55.2337 55.4149 55.6137C55.1953 55.994 54.8622 56.3239 54.4158 56.6036C53.9694 56.8833 53.4133 57.1023 52.7472 57.2599C52.0812 57.4178 51.3015 57.4966 50.4086 57.4966C48.8862 57.4966 47.3784 57.235 45.8853 56.7114C44.3924 56.1878 43.0089 55.4022 41.7354 54.355V61.241Z" fill="#3178C6"/>
</svg>
