<svg width="70" height="70" viewBox="0 0 70 70" fill="none" xmlns="http://www.w3.org/2000/svg">
<g clip-path="url(#clip0_1681_8)">
<path d="M35 0L66 17.5346V52.6119L35 70.1465L4 52.6119V17.5346L35 0Z" fill="white"/>
<path d="M60.465 51.4037L36.0255 65.2295V54.4636L51.2531 46.0848L60.465 51.4037ZM62.1392 49.8897V20.9804L53.1996 26.1471V44.7311L62.1392 49.8897ZM9.43917 51.4037L33.8787 65.2295V54.4636L18.6431 46.0848L9.43917 51.4037ZM7.76501 49.8897V20.9804L16.7046 26.1471V44.7311L7.76501 49.8897ZM8.81437 19.106L33.8787 4.92773V15.3332L17.818 24.1686L17.6898 24.2407L8.81437 19.106ZM61.0898 19.106L36.0255 4.92773V15.3332L52.0862 24.1605L52.2144 24.2326L61.0898 19.106Z" fill="#8ED6FB"/>
<path d="M33.8783 52.0102L18.851 43.7435V27.3784L33.8783 36.0536V52.0102ZM36.0251 52.0102L51.0525 43.7515V27.3784L36.0251 36.0536V52.0102ZM19.8683 25.488L34.9517 17.1973L50.0352 25.488L34.9517 34.1952L19.8683 25.488Z" fill="#1C78C0"/>
</g>
<defs>
<clipPath id="clip0_1681_8">
<rect width="70" height="70" fill="white"/>
</clipPath>
</defs>
</svg>
